<?xml version="1.0" encoding="UTF-8" standalone="no"?>
<!-- Created with Inkscape (http://www.inkscape.org/) -->

<svg
   width="175mm"
   height="38mm"
   viewBox="0 0 175 38"
   version="1.1"
   id="svg1"
   inkscape:version="1.3.2 (091e20e, 2023-11-25, custom)"
   sodipodi:docname="logo-SPECIALIZED.svg"
   xmlns:inkscape="http://www.inkscape.org/namespaces/inkscape"
   xmlns:sodipodi="http://sodipodi.sourceforge.net/DTD/sodipodi-0.dtd"
   xmlns="http://www.w3.org/2000/svg"
   xmlns:svg="http://www.w3.org/2000/svg">
  <sodipodi:namedview
     id="namedview1"
     pagecolor="#ffffff"
     bordercolor="#000000"
     borderopacity="0.25"
     inkscape:showpageshadow="2"
     inkscape:pageopacity="0.0"
     inkscape:pagecheckerboard="0"
     inkscape:deskcolor="#d1d1d1"
     inkscape:document-units="mm"
     inkscape:zoom="1"
     inkscape:cx="332"
     inkscape:cy="81.5"
     inkscape:window-width="1440"
     inkscape:window-height="837"
     inkscape:window-x="1352"
     inkscape:window-y="-8"
     inkscape:window-maximized="1"
     inkscape:current-layer="g8" />
  <defs
     id="defs1" />
  <g
     inkscape:label="Camada 1"
     inkscape:groupmode="layer"
     id="layer1" />
  <g
     inkscape:groupmode="layer"
     id="layer2"
     inkscape:label="Camada 0">
    <g
       id="g6"
       style="fill:#ff0000">
      <g
         id="g5"
         style="fill:#ff0000">
        <g
           id="g4"
           style="fill:#ff0000">
          <g
             id="g8"
             transform="translate(1.5875,0.52916663)"
             style="fill:#ff0000">
            <g
               id="g7"
               style="fill:#ff0000;stroke:none">
              <path
                 id="path39"
                 style="fill:#ff0000;stroke:none"
                 d="m 36.236551,8.6893799 c -3.430537,-0.0392 -5.576891,0.0373 -5.744869,0.20515 C 30.286661,9.0994366 24.03976,23.037818 21.569746,28.801215 l -0.368969,0.859884 h 2.220019 2.22002 l 1.532723,-3.444209 c 0.842768,-1.894308 1.666345,-3.555619 1.830379,-3.691749 0.164033,-0.13614 2.078894,-0.502267 4.255037,-0.813377 4.046323,-0.578484 4.835248,-0.854304 5.544882,-1.937338 0.782238,-1.193834 3.82984,-8.509582 3.83284,-9.200419 C 42.638277,10.18995 42.4309,9.6227133 42.17624,9.3136266 41.734721,8.7777999 41.458879,8.7490799 36.236551,8.6893799 Z m -1.95957,1.3699301 1.601453,0.0775 c 1.40087,0.0677 1.611501,0.14731 1.681551,0.638207 0.09567,0.670477 -2.319666,6.672004 -3.252515,8.081625 -0.469439,0.709367 -0.940837,1.063134 -1.652612,1.240751 -1.603632,0.40055 -2.643257,0.551887 -2.78846,0.40669 -0.07443,-0.0744 0.02214,-0.455527 0.214457,-0.846977 0.192315,-0.391437 0.963486,-2.140318 1.71359,-3.886556 0.750104,-1.746241 1.615662,-3.745699 1.923397,-4.443116 z" />
              <path
                 id="path38"
                 style="fill:#ff0000;stroke:none"
                 d="m 27.822595,8.6402799 c 0,-0.0513 -2.708676,-0.032 -6.019271,0.0424 -5.696806,0.12798 -6.049877,0.16528 -6.597014,0.7007267 -0.743172,0.7273034 -2.732567,5.2641494 -2.718697,6.2001034 0.0083,0.562467 0.520277,1.167934 2.391586,2.828235 1.309665,1.161981 2.449748,2.384715 2.533178,2.717135 0.166126,0.661894 -0.07701,1.376251 -1.416451,4.166126 -1.329979,2.769782 -1.345425,2.777662 -5.599141,2.779662 l -3.6085629,0.002 -0.450619,0.792197 -0.4506177,0.791684 h 5.8213476 c 6.248062,0 6.876557,-0.113177 7.713224,-1.390091 0.656329,-1.001674 2.516248,-5.530527 2.720247,-6.623331 0.185907,-0.995887 0.171176,-1.017877 -2.398303,-3.485042 -2.949134,-2.831692 -3.031315,-3.077332 -1.831929,-5.47354 1.318529,-2.634235 1.261144,-2.607055 5.549015,-2.607055 h 3.748092 l 0.306958,-0.6738534 c 0.168878,-0.37065 0.306958,-0.7160967 0.306958,-0.7673967 z" />
              <path
                 id="path37"
                 style="fill:#ff0000;stroke:none"
                 d="m 103.85504,8.5503699 -2.28409,0.0765 -4.053485,9.3926551 c -2.229388,5.165953 -4.058876,9.713336 -4.065876,10.105263 -0.008,0.446277 0.207397,0.866527 0.575667,1.124474 0.474927,0.33267 1.433351,0.411857 4.98261,0.411857 h 4.394564 l 0.28163,-0.917244 0.28164,-0.917254 -2.68459,-0.0749 c -2.454571,-0.0687 -2.690631,-0.12025 -2.756931,-0.604097 -0.0399,-0.291037 1.656771,-4.556823 3.770301,-9.478956 2.11354,-4.922123 3.84266,-9.0041481 3.84266,-9.0717381 0,-0.0676 -1.02781,-0.0885 -2.2841,-0.0465 z" />
              <path
                 id="path36"
                 style="fill:#ff0000;stroke:none"
                 d="m 78.472216,8.5498499 -2.332157,0.077 -4.447274,10.3006021 c -2.445997,5.665587 -4.447274,10.3983 -4.447274,10.51713 v 5.1e-4 c 0,0.11884 1.071572,0.216007 2.38125,0.216007 1.486419,0 2.38125,-0.104627 2.38125,-0.278017 0,-0.15276 1.919405,-4.766423 4.265373,-10.252543 2.345968,-5.486127 4.325177,-10.1282824 4.398177,-10.3161091 0.10354,-0.26658 -0.379137,-0.32458 -2.199345,-0.26458 z" />
              <path
                 id="path34"
                 style="fill:#ff0000;stroke:none"
                 d="m 114.44871,8.4945599 -4.44934,10.2525421 c -2.44707,5.638887 -4.50766,10.40136 -4.57956,10.58327 -0.0987,0.24982 0.45231,0.330727 2.25257,0.330727 2.36199,0 2.38625,-0.007 2.63964,-0.727594 0.14065,-0.400177 2.11678,-5.092993 4.39146,-10.42825 2.27468,-5.33526 4.13566,-9.7702751 4.13566,-9.8556651 0,-0.0854 -0.98782,-0.15503 -2.19521,-0.15503 z m 6.82904,0 -0.18241,0.7275967 c -0.10044,0.4001767 -0.20288,0.7701867 -0.22738,0.8226834 -0.0245,0.0525 1.50337,0.0808 3.39514,0.063 1.89178,-0.0178 3.5829,0.0621 3.75791,0.17725 0.31254,0.20562 -1.38864,2.122708 -11.89385,13.405315 -4.08199,4.384053 -4.5536,5.19685 -3.30729,5.697807 v -5.2e-4 c 0.32742,0.1316 3.30101,0.246797 6.60787,0.255797 l 6.01255,0.0171 0.40359,-0.780834 c 0.22202,-0.429317 0.4036,-0.846037 0.4036,-0.926034 0,-0.08 -1.90501,-0.14521 -4.23334,-0.14521 -2.32833,0 -4.23333,-0.10511 -4.23333,-0.23358 0,-0.128477 3.57188,-4.121346 7.9375,-8.872789 4.36563,-4.751423 7.9375,-8.8298487 7.9375,-9.0634787 0,-1.0045434 -0.71931,-1.1273534 -6.65179,-1.1363534 z" />
              <path
                 id="path33"
                 style="fill:#ff0000;stroke:none"
                 d="m 93.214379,8.4947999 -2.070148,0.009 c -2.248318,0.0102 -2.848132,0.23494 -3.857616,1.4459034 C 86.749528,10.593977 76.001186,26.272 74.27194,28.933445 l -0.47284,0.727604 2.213302,-0.0145 2.213301,-0.0145 2.859765,-4.351133 2.859765,-4.351126 h 1.990048 1.990048 l -0.148317,0.727597 c -0.20329,0.999044 -0.687807,6.004724 -0.687807,7.105988 v 0.897614 h 2.199338 2.198818 l 0.328657,-4.299453 c 0.18087,-2.364698 0.492797,-6.025867 0.692987,-8.135895 0.200177,-2.110038 0.440947,-4.937753 0.534847,-6.283814 z m -4.89631,6.0853861 c 0.152537,0 -0.13316,3.816859 -0.34158,4.564033 -0.0982,0.35191 -0.410367,0.463017 -1.301721,0.463017 -0.645037,0 -1.173054,-0.107937 -1.173054,-0.239777 0,-0.31121 2.633295,-4.787273 2.816355,-4.787273 z" />
              <path
                 id="path32"
                 style="fill:#ff0000;stroke:none"
                 d="m 58.792797,8.4945599 -4.968172,0.006 c -5.512246,0.007 -6.735865,0.18639 -7.674984,1.1255034 -0.639309,0.6393067 -8.008296,17.7884907 -8.008296,18.6369947 0,0.23647 0.197381,0.647517 0.438216,0.913634 v 5.2e-4 c 0.396153,0.43775 0.937159,0.483687 5.681307,0.483687 h 5.244124 l 0.410311,-0.793744 0.410828,-0.793747 h -1.422136 c -2.625017,0 -5.515919,-0.338487 -5.639449,-0.660414 -0.06632,-0.17283 0.621937,-1.999941 1.529106,-4.060199 l 1.648995,-3.745999 h 2.950724 c 2.890547,0 2.956758,-0.0135 3.251998,-0.661454 l 0.301273,-0.661457 H 50.04191 c -1.693958,0 -2.904732,-0.1066 -2.904732,-0.2558 0,-0.472167 2.944413,-7.014728 3.367753,-7.483215 0.35861,-0.39682 0.921916,-0.46302 3.942395,-0.46302 h 3.524333 L 58.38197,9.2881066 Z" />
              <path
                 id="path31"
                 style="fill:#ff0000;stroke:none"
                 d="m 73.632202,8.4496029 -5.966045,0.0889 c -5.961334,0.0883 -5.96595,0.0889 -6.6151,0.7498337 -0.368859,0.3755667 -2.258231,4.3946454 -4.371309,9.2991154 -3.940238,9.145329 -4.284775,10.335233 -3.126424,10.80083 v -5.2e-4 c 0.327419,0.1316 2.926774,0.247317 5.776391,0.256317 l 5.18108,0.0165 0.28422,-0.926044 0.28422,-0.926034 h -3.54707 c -3.468107,0 -3.54707,-0.0124 -3.54707,-0.576187 0,-0.563177 6.687219,-16.165047 7.209379,-16.820064 0.18811,-0.23593 1.313977,-0.33073 3.928959,-0.33073 h 3.664892 l 0.42168,-0.8159634 z" />
              <path
                 id="path35"
                 style="fill:#ff0000;stroke:none"
                 d="m 143.37925,8.5415799 c -6.33583,0.0958 -6.38266,0.10871 -7.44244,2.0598071 -1.27708,2.351208 -7.30808,16.804277 -7.30808,17.513561 0,0.44625 0.22466,0.879757 0.58807,1.134294 0.48284,0.33817 1.50058,0.411857 5.68803,0.411857 h 5.09943 l 0.3514,-0.859884 0.3514,-0.859894 -3.40444,-0.0739 c -2.65629,-0.0577 -3.43649,-0.15727 -3.54966,-0.452167 -0.0798,-0.20789 0.59304,-2.049848 1.495,-4.093269 l 1.63969,-3.714989 h 2.85151 c 2.74972,0 2.86715,-0.0236 3.28507,-0.661454 l 0.43357,-0.661457 h -2.91662 c -2.15697,0 -2.9163,-0.0861 -2.9161,-0.330727 5.2e-4,-0.648927 2.86962,-6.890291 3.42098,-7.441878 0.50478,-0.504977 0.91641,-0.5714767 4.06021,-0.6557767 3.44895,-0.0924 3.88124,-0.20916 3.89124,-1.0495434 0.003,-0.28148 -1.09087,-0.33298 -5.61826,-0.26458 z m 14.20843,0.0139 -6.04511,0.0713 -4.44314,10.3186921 c -2.44369,5.675267 -4.4442,10.37818 -4.4452,10.45098 -0.001,0.0728 2.90561,0.13229 6.46007,0.13229 6.13588,0 6.50006,-0.0281 7.20111,-0.551387 0.56882,-0.424567 1.58468,-2.490538 4.4235,-8.995779 2.02683,-4.644556 3.73762,-8.923349 3.80132,-9.508406 0.0887,-0.8146867 -0.004,-1.1721534 -0.39584,-1.5265204 -0.46056,-0.4167797 -1.11099,-0.4553897 -6.55671,-0.3911897 z" />
            </g>
            <path
               id="path40"
               style="fill:#ffffff;fill-opacity:1;stroke:none"
               d="m 157.46285,10.07944 c 0.88751,0.0159 1.79136,0.15683 2.04535,0.41083 0.34691,0.346907 0.35365,0.537767 0.0491,1.389051 -0.81309,2.272748 -6.51904,14.990146 -6.92877,15.442903 -0.36366,0.401887 -0.8337,0.492987 -2.54972,0.492987 -1.57824,0 -2.07041,-0.0826 -1.96991,-0.330727 1.12969,-2.788815 7.22082,-16.823017 7.40679,-17.065534 0.18869,-0.24609 1.05965,-0.35538 1.94717,-0.33951 z"
               sodipodi:insensitive="true" />
            <path
               style="fill:#ff0000;stroke-width:0.135333"
               d="m 159.73958,30.859489 c -0.66417,-0.05429 -1.21537,-0.478819 -1.42296,-1.095983 -0.15174,-0.451095 -0.12204,-0.954171 0.0807,-1.367771 0.42236,-0.861476 1.54676,-1.174499 2.39664,-0.667198 0.40343,0.240805 0.67524,0.645659 0.76513,1.139592 0.027,0.148101 0.027,0.466644 0,0.614741 -0.1233,0.677545 -0.57827,1.168579 -1.23416,1.331966 -0.11187,0.02786 -0.37347,0.06007 -0.44925,0.05531 -0.0139,-9.52e-4 -0.0752,-0.0056 -0.13614,-0.01066 z m 0.32995,-0.296363 c 0.50381,-0.06094 0.90569,-0.396061 1.07021,-0.892415 0.0578,-0.174311 0.0712,-0.267864 0.0712,-0.495209 0,-0.159456 -0.005,-0.233764 -0.0207,-0.305947 -0.0789,-0.364004 -0.24745,-0.641283 -0.50913,-0.837811 -0.42536,-0.319448 -1.03366,-0.33928 -1.48568,-0.04844 -0.38477,0.247578 -0.60813,0.686184 -0.60787,1.193661 2.7e-4,0.878829 0.65037,1.486754 1.4819,1.386164 z m -0.81307,-1.353473 v -0.933496 h 0.44449 c 0.49332,0 0.55762,0.0065 0.70073,0.07101 0.0996,0.04488 0.19092,0.138352 0.22778,0.233118 0.0309,0.07932 0.0437,0.274741 0.0241,0.365258 -0.0406,0.187239 -0.18168,0.316809 -0.39013,0.358528 -0.0393,0.0079 -0.0743,0.01717 -0.0779,0.02069 -0.004,0.0035 0.11031,0.187239 0.25304,0.40829 0.14273,0.221053 0.2595,0.403892 0.2595,0.406311 0,0.0025 -0.0788,0.0031 -0.17518,0.0012 l -0.17521,-0.0031 -0.24199,-0.395598 -0.24201,-0.395598 h -0.14791 -0.14791 v 0.398444 0.398444 h -0.15569 -0.15569 z m 0.81883,-0.136832 c 0.0529,-0.0067 0.11114,-0.02313 0.14993,-0.04234 0.0533,-0.02645 0.0685,-0.04126 0.0951,-0.09324 0.0551,-0.107408 0.0395,-0.256584 -0.0338,-0.321973 -0.012,-0.01072 -0.0476,-0.03121 -0.0791,-0.04553 -0.054,-0.02457 -0.0736,-0.02626 -0.34844,-0.02977 l -0.29121,-0.0037 v 0.274084 0.274082 l 0.21048,-3.13e-4 c 0.11576,-1.35e-4 0.24939,-0.0053 0.29697,-0.01125 z"
               id="path1" />
          </g>
        </g>
      </g>
    </g>
  </g>
</svg>
