<?xml version="1.0" encoding="UTF-8" standalone="no"?>
<!-- Created with Inkscape (http://www.inkscape.org/) -->

<svg
   width="375mm"
   height="165mm"
   viewBox="0 0 375 165"
   version="1.1"
   id="svg1"
   inkscape:version="1.3 (0e150ed6c4, 2023-07-21)"
   sodipodi:docname="logo-racetech.svg"
   xmlns:inkscape="http://www.inkscape.org/namespaces/inkscape"
   xmlns:sodipodi="http://sodipodi.sourceforge.net/DTD/sodipodi-0.dtd"
   xmlns="http://www.w3.org/2000/svg"
   xmlns:svg="http://www.w3.org/2000/svg">
  <sodipodi:namedview
     id="namedview1"
     pagecolor="#ffffff"
     bordercolor="#000000"
     borderopacity="0.25"
     inkscape:showpageshadow="2"
     inkscape:pageopacity="0.0"
     inkscape:pagecheckerboard="0"
     inkscape:deskcolor="#d1d1d1"
     inkscape:document-units="mm"
     inkscape:zoom="0.43852551"
     inkscape:cx="695.51257"
     inkscape:cy="443.53178"
     inkscape:window-width="1600"
     inkscape:window-height="829"
     inkscape:window-x="1912"
     inkscape:window-y="-8"
     inkscape:window-maximized="1"
     inkscape:current-layer="layer1" />
  <defs
     id="defs1" />
  <g
     inkscape:label="Camada 1"
     inkscape:groupmode="layer"
     id="layer1">
    <path
       style="fill:#000000;stroke-width:2.0588;image-rendering:auto"
       d="m 140.68625,153.25083 c -6.49205,-0.13571 -10.00667,-0.4655 -10.00667,-0.93934 0,-2.45998 6.87335,-26.9529 7.86652,-28.03203 0.12958,-0.14062 0.82349,0.82715 1.54223,2.15077 1.79979,3.31446 4.43174,3.94589 15.47224,3.71198 l 9.04857,-0.19173 0.93505,-3.27443 c 0.51428,-1.80093 0.79765,-3.42373 0.6297,-3.60623 -0.16793,-0.18259 -3.96588,-0.54445 -8.43984,-0.80431 l -8.13447,-0.47252 0.33398,-2.70566 c 0.65632,-5.31668 3.45609,-6.73056 13.33982,-6.7367 l 6.22702,-0.005 0.83604,-2.2436 c 0.45982,-1.23398 1.03192,-3.13868 1.27131,-4.23268 l 0.43527,-1.98907 -10.35737,0.33779 c -12.48505,0.40717 -14.79195,1.17592 -17.80417,5.93301 -1.0998,1.73685 -2.09496,2.84715 -2.21147,2.46733 -0.37033,-1.2071 3.43017,-16.153633 21.52845,-84.666912 l 5.24278,-19.8473179 h 20.51057 c 17.05102,0 20.51048,0.161198 20.51048,0.956114 0,0.525854 -0.71475,1.4649919 -1.58834,2.0869489 -0.87362,0.621941 -1.58837,1.722415 -1.58837,2.445472 0,0.723058 -0.71476,1.925568 -1.58834,2.672226 -0.9463,0.808794 -1.58838,2.06338 -1.58838,3.103665 0,0.960361 -0.71477,2.669097 -1.58836,3.797173 -0.87358,1.128076 -1.58837,2.918147 -1.58837,3.977937 0,1.059776 -0.59313,2.612912 -1.31812,3.451424 -1.13393,1.311508 -1.20372,1.723657 -0.49933,2.949214 0.712,1.238761 0.62161,1.652735 -0.69272,3.172917 -1.28459,1.485709 -1.40577,2.000569 -0.80699,3.428498 0.90742,2.163959 0.91612,2.156952 -8.43669,6.784065 -11.59622,5.736956 -12.3116,5.966423 -13.43624,4.309732 -1.06088,-1.562812 -2.33277,-1.453108 -4.7392,0.408729 -1.59323,1.232704 -1.67051,1.566538 -1.50859,6.515971 0.2953,9.02497 1.93479,11.09311 7.09609,8.95135 2.75002,-1.14116 2.83916,-1.26794 2.45512,-3.49229 -0.453,-2.62378 -0.71959,-2.42054 11.40352,-8.694374 7.50753,-3.88524 8.90163,-4.14168 8.29748,-1.52627 -0.28417,1.230205 -0.0769,2.215868 0.64933,3.087779 0.73097,0.877631 0.94824,1.924555 0.69031,3.325955 -0.3196,1.73631 -0.16427,2.07798 1.02897,2.26233 1.08685,0.16784 1.41067,0.68626 1.42848,2.28639 0.0149,1.31217 0.36326,2.09456 0.953,2.13846 2.52857,0.1882 2.65244,0.29542 2.26758,1.9615 -0.34598,1.49784 -0.16228,1.70565 1.67831,1.89842 1.72268,0.18052 2.10032,0.53262 2.26789,2.11494 0.21569,2.03683 0.54304,2.23917 2.00136,1.23701 1.16843,-0.80297 2.56268,0.34465 2.56268,2.10937 0,1.06476 0.33315,1.20651 1.98962,0.84653 1.61299,-0.35053 2.22323,-0.11853 3.22367,1.22534 0.83355,1.11974 1.33907,1.37768 1.55772,0.79481 0.4763,-1.26986 3.23492,-1.05014 3.93731,0.31357 0.51518,1.00024 0.85753,1.05195 2.28517,0.34518 2.25334,-1.11556 3.52383,-1.04693 4.85526,0.2623 1.02568,1.00857 1.19586,0.95488 2.18796,-0.69034 1.293,-2.14416 1.83005,-2.20067 3.922,-0.4127 1.81142,1.5482 2.54432,1.30809 3.39073,-1.11087 0.8475,-2.42199 2.32842,-2.75923 4.1138,-0.93676 1.24452,1.27038 1.71524,1.40898 2.47089,0.72755 0.51343,-0.46301 1.02213,-1.48647 1.1305,-2.27443 0.21029,-1.52944 2.08871,-3.19998 2.76808,-2.46179 0.22462,0.24407 -0.47299,3.33961 -1.55025,6.879 -1.07724,3.53942 -2.47796,8.454509 -3.11269,10.922479 l -1.15406,4.487232 -18.48405,0.1828 -18.48403,0.18301 -1.01822,2.76503 c -1.71255,4.650593 -1.47188,5.246893 2.31738,5.741433 1.83455,0.23945 4.55064,0.43803 6.03576,0.44135 1.48511,0.005 2.7002,0.33015 2.7002,0.72634 0,0.39617 -1.57247,6.14355 -3.49439,12.77194 -1.92192,6.6284 -3.4944,12.20664 -3.4944,12.39613 0,0.18945 1.96633,0.34453 4.36964,0.34453 2.93759,0 4.60779,-0.31185 5.0964,-0.95155 0.39973,-0.52334 2.40922,-6.34808 4.46552,-12.94389 l 3.73873,-11.99234 6.78611,-0.19651 6.78613,-0.19652 -0.44711,2.26758 -0.4471,2.26757 1.50364,-1.50727 c 2.55915,-2.56537 4.69895,-2.97993 15.38117,-2.97993 11.98618,0 13.12457,0.41255 13.12457,4.75645 0,1.43395 0.1814,2.80426 0.40308,3.04515 0.22167,0.24087 1.35002,-0.90961 2.50741,-2.55661 3.24621,-4.6194 5.37155,-5.245 17.819,-5.245 8.16341,0 10.47226,0.19444 10.2452,0.86292 -0.16113,0.47463 -0.78658,2.49386 -1.38972,4.48723 l -1.09662,3.62428 h -7.80505 c -6.86321,0 -8.00151,0.16785 -9.43312,1.39146 -1.71567,1.46639 -3.35975,5.68531 -2.68072,6.87913 0.23864,0.41954 3.72123,0.70384 8.62232,0.70384 9.29426,0 9.22547,-0.0521 6.9893,5.29937 -1.10327,2.64033 -1.45708,2.92429 -4.20068,3.37134 -4.63343,0.75496 -16.77484,-0.0465 -19.48128,-1.2859 -2.78115,-1.27367 -3.37007,-3.02526 -2.85179,-8.48171 0.19507,-2.05452 0.22094,-3.73548 0.0573,-3.73548 -0.16361,0 -1.15703,0.69048 -2.20758,1.53441 -1.70603,1.3705 -2.84015,1.5635 -10.61628,1.80671 -8.16248,0.25531 -10.15341,0.75426 -9.26214,2.32122 0.17222,0.3029 4.22756,0.55548 9.01173,0.56129 4.78416,0.006 9.10417,0.28958 9.59998,0.63056 0.76813,0.52828 0.73138,1.10404 -0.24833,3.89146 l -1.14985,3.27144 -11.72949,-0.42388 c -10.12277,-0.3658 -12.0227,-0.61188 -13.87028,-1.79631 -1.17744,-0.75484 -2.24233,-1.15508 -2.36641,-0.88937 -0.12415,0.26568 -0.738,2.50233 -1.36428,4.9703 -0.62627,2.46797 -1.51617,5.88515 -1.97756,7.59375 -0.46139,1.70859 -1.44004,5.35875 -2.1748,8.11152 l -1.3359,5.00497 -39.52325,-0.15373 c -21.73787,-0.0845 -44.02634,-0.24768 -49.53001,-0.3626 z m 55.36471,-24.50843 c 1.74799,-5.07698 2.35182,-4.65197 -6.71801,-4.72859 -9.43678,-0.0797 -11.32022,-0.4755 -11.32022,-2.37853 0,-1.26398 0.61121,-1.37247 9.63917,-1.71128 8.41636,-0.31583 9.81804,-0.53475 11.04942,-1.72585 2.87406,-2.77998 4.65709,-9.4771 3.19234,-11.99052 -0.75725,-1.29935 -5.4798,-2.06261 -12.76235,-2.06261 -7.61785,0 -11.6857,0.72136 -13.85803,2.45742 -3.79701,3.03449 -7.90861,15.13539 -6.7021,19.72502 0.87527,3.32947 3.1276,3.88366 15.96959,3.92925 10.81518,0.0385 10.98321,0.0166 11.51019,-1.51431 z m -16.12613,-14.31393 c -0.85575,-1.50444 3.69162,-3.45711 8.05711,-3.45975 4.76846,-0.002 5.95078,0.9091 3.72143,2.87057 -1.12538,0.99017 -2.5349,1.26888 -6.41702,1.26888 -2.73621,0 -5.14887,-0.30585 -5.36152,-0.6797 z m 80.95155,-1.1026 c 0.772,-0.78745 0.63267,-1.03616 -0.95301,-1.70102 -2.31187,-0.96929 -6.95888,-0.3469 -9.12241,1.22183 l -1.62966,1.18161 1.90603,0.45051 c 2.71992,0.64289 8.73193,-0.0644 9.79905,-1.15293 z M 66.593603,130.36652 c -0.70962,-0.48845 -0.52012,-1.59581 1.03189,-6.02991 1.04562,-2.98735 3.53336,-10.79032 5.52827,-17.33995 l 3.62712,-11.908363 14.08363,0.001 c 15.458107,0.001 17.500417,0.44568 19.430857,4.22908 2.02716,3.972973 -1.83433,13.877723 -6.89292,17.680393 -1.39469,1.04839 -2.54666,2.42089 -2.55991,3.04995 -0.0144,0.62907 0.81058,3.16517 1.83078,5.63582 1.02018,2.47064 1.6873,4.67417 1.48247,4.89673 -0.47967,0.52119 -7.044487,0.50898 -8.847367,-0.0166 -0.99005,-0.28852 -1.90006,-1.79839 -3.21888,-5.34071 l -1.8386,-4.93845 h -5.27821 -5.27821 l -1.41117,4.55271 c -0.77614,2.50398 -1.61529,4.91154 -1.86476,5.35014 -0.53224,0.93574 -8.51408,1.0803 -9.82499,0.17802 z m 30.39129,-20.28225 c 1.41344,-0.77713 3.195267,-4.87414 2.46495,-5.66769 -0.15834,-0.17199 -3.45703,-0.52201 -7.33033,-0.77762 -7.86948,-0.51934 -7.6105,-0.65615 -8.97083,4.73841 l -0.65281,2.58876 6.46106,-0.0107 c 3.88401,-0.006 7.08604,-0.3538 8.02796,-0.8717 z m 12.795867,20.23798 c -4.67143,-0.82157 -5.58112,-4.13619 -2.80131,-10.20721 2.11577,-4.62076 3.59173,-5.24754 13.5878,-5.77 4.90262,-0.25624 9.10376,-0.67224 9.33587,-0.92442 1.09941,-1.19458 -2.21492,-1.7439 -10.5803,-1.75357 l -9.13309,-0.0107 0.35087,-1.89844 c 0.19303,-1.04415 0.6505,-2.75271 1.01671,-3.79686 l 0.66585,-1.89844 h 11.80115 c 13.76248,0 15.03348,0.38244 16.2787,4.89839 0.89206,3.23515 0.0357,7.70556 -3.09881,16.17715 -1.77032,4.78457 -1.79693,4.81492 -4.6291,5.27882 -3.68912,0.60427 -19.18577,0.53979 -22.79434,-0.0948 z m 17.36489,-8.02114 c 1.62214,-1.76254 0.56589,-2.36056 -4.16945,-2.36056 -4.71057,0 -6.90952,0.7767 -6.90952,2.44049 0,1.5138 9.67647,1.44398 11.07897,-0.08 z m 169.65843,7.82198 c -0.43127,-1.25796 9.59121,-35.111373 10.6007,-35.806553 1.20771,-0.8317 8.63853,-0.75274 9.12181,0.0971 0.22082,0.38823 -0.0746,2.2637 -0.65674,4.16772 -1.63577,5.351123 -1.47085,5.481543 6.93268,5.481543 6.96447,0 7.36463,0.0796 9.29925,1.84833 1.94001,1.77371 2.01034,2.01756 1.74202,6.04047 -0.15386,2.30569 -1.19741,7.34378 -2.31919,11.19578 -2.2693,7.79245 -2.29048,7.81269 -8.19684,7.82927 -2.3129,0.006 -3.46266,-0.29403 -3.70041,-0.9672 -0.18975,-0.53717 0.53405,-3.95807 1.6083,-7.60202 2.9104,-9.87208 3.0844,-9.46038 -3.89842,-9.22354 l -5.85165,0.1986 -2.48173,8.37939 -2.48173,8.37937 -2.30865,0.41488 c -3.7994,0.68276 -7.09291,0.49034 -7.4094,-0.43287 z M 215.89637,73.388946 c -4.9023,-1.74046 -8.35719,-6.5486 -8.32615,-11.58742 0.0233,-3.76698 2.18917,-7.787727 7.14119,-13.256404 6.72248,-7.42381 11.4198,-9.386411 16.71354,-6.983077 3.56425,1.618154 4.0964,3.911063 3.54997,15.295589 -0.51597,10.749122 -1.33807,13.308592 -5.02659,15.649272 -2.71825,1.72496 -10.33171,2.20287 -14.05196,0.88204 z m 22.79177,-6.81464 c 0,-3.23005 3.28523,-8.5957 6.02429,-9.839195 3.31594,-1.505415 6.95251,-1.27719 8.87565,0.557029 1.52427,1.453766 1.57992,1.721986 0.86903,4.187426 -0.41776,1.4488 -1.49204,3.19829 -2.38732,3.88778 -2.41993,1.86368 -7.33053,3.488 -10.54482,3.488 -2.78651,0 -2.83683,-0.0405 -2.83683,-2.28104 z m -66.07584,-1.7502 c 0,-0.31875 0.66959,-0.91103 1.48801,-1.3162 1.63901,-0.81143 3.37426,-0.0825 2.68564,1.12823 -0.50517,0.88809 -4.17365,1.05332 -4.17365,0.18798 z m -1.74722,-1.95559 c -1.19553,-0.51377 -0.9537,-3.99743 0.36771,-5.296795 2.81532,-2.768373 6.10966,0.588455 3.76205,3.833395 -0.90133,1.24586 -2.94818,1.97117 -4.12976,1.4634 z m -1.00595,-7.589857 c -0.75098,-0.815985 -0.45731,-1.372478 1.1421,-2.164297 1.9805,-0.980495 2.87913,0.229253 1.19817,1.612987 -1.34137,1.104169 -1.74413,1.199045 -2.34027,0.55131 z m 32.90242,-2.363447 c -1.29214,-2.714979 -0.85601,-3.892325 1.90633,-5.14642 4.92259,-2.234821 5.94939,-0.850857 3.17928,4.285136 -1.95271,3.620502 -3.63671,3.905696 -5.08561,0.861284 z m 48.82187,-4.146067 c -2.16774,-1.905004 -4.56732,-4.564149 -5.33237,-5.909179 -1.80123,-3.166751 -1.85264,-8.480012 -0.12283,-12.686358 2.45651,-5.973109 11.72296,-13.429827 18.52271,-14.905186 2.04016,-0.442664 2.11384,-0.38841 1.61776,1.191546 -0.28585,0.910447 -2.5343,9.243768 -4.99654,18.518481 -2.46226,9.274744 -4.76272,16.951176 -5.11216,17.058764 -0.34943,0.107649 -2.40895,-1.363048 -4.57667,-3.268068 z m -22.7176,-10.500409 -1.88053,-0.903393 2.83354,-2.109383 c 1.55844,-1.160156 4.02161,-2.764525 5.4737,-3.565268 4.74918,-2.618907 6.63664,-6.871104 4.13977,-9.326345 -1.62192,-1.594861 -2.77114,-1.444536 -7.09761,0.928527 -5.94769,3.26227 -6.68742,2.551036 -2.49124,-2.395329 7.76865,-9.157541 19.47283,-4.690644 15.62171,5.962007 -3.12949,8.656544 -11.02819,14.085535 -16.59934,11.409184 z m -26.81427,-1.56065 c -0.21016,-0.595044 -0.22482,-2.966481 -0.0327,-5.269848 0.40775,-4.885961 3.39234,-11.692875 7.96044,-18.155311 3.64065,-5.1503759 3.64577,-5.1541329 7.04583,-5.1669839 2.4774,-0.01073 3.08701,0.325416 5.32333,2.9233759 3.07865,3.576508 4.89785,6.66171 4.90104,8.311592 0.003,2.143411 -2.44622,6.558309 -4.59802,8.28448 -3.6668,2.941548 -16.85128,10.154629 -18.56118,10.154629 -0.91814,0 -1.82708,-0.482335 -2.03884,-1.081934 z m 30.89414,-8.269544 c -1.23565,-1.617756 1.14273,-4.800517 3.58731,-4.800517 2.39936,0 2.82874,2.370885 0.80113,4.423393 -1.69217,1.712968 -3.26489,1.848112 -4.38844,0.377124 z m 3.52381,-16.356454 c -1.19607,-1.117878 -1.66971,-2.074681 -1.4021,-2.8324259 0.34989,-0.990708 1.60774,-1.144284 9.37184,-1.144284 10.02376,0 10.7736,0.482764 5.33887,3.4373919 -2.10833,1.146216 -4.52785,1.796711 -7.32529,1.969486 -3.70277,0.22867 -4.38221,0.06625 -5.98332,-1.430168 z"
       id="path1" />
    <path
       style="fill:#ff0000;stroke-width:2.60879"
       d="m 222.5674,136.79549 c -24.64847,-0.0388 -72.70596,1.30297 -84.40831,2.71618 -3.11767,0.37654 -12.04617,1.14777 -19.84035,1.71428 -36.188167,2.63029 -96.737864,10.14872 -108.7642508,13.50487 -0.407717,0.11379 -0.688216,0.21597 -1.013451,0.32223 -0.01702,0.69641 -0.03303,1.39249 -0.05975,2.08888 -0.01754,0.43947 -0.0429,0.87843 -0.06418,1.31761 0.142318,-0.0328 0.257092,-0.0548 0.42932,-0.0997 9.8519038,-2.57677 58.3254548,-9.70418 84.7927348,-12.46778 30.247627,-3.15832 69.241887,-4.87449 120.690627,-5.31131 42.57449,-0.36149 68.75074,0.79934 106.20786,4.70854 7.47322,0.77994 11.1932,1.07348 13.57321,1.13767 0.22704,-0.66962 0.45533,-1.3389 0.68706,-2.00708 -1.85887,-0.32641 -4.57578,-0.65699 -9.57752,-1.12949 -31.5701,-2.98237 -49.59572,-4.18515 -72.27348,-4.82388 -7.79421,-0.21952 -14.87968,-0.72467 -15.74614,-1.12295 -0.80086,-0.36812 -6.41618,-0.53503 -14.6324,-0.54798 z"
       id="path158" />
    <path
       style="fill:#ffffff;stroke:#ffffff;stroke-width:0.2"
       d="m 141.6015,112.61859 -3.01199,11.57552 1.35673,1.6127 0.6492,1.20886 0.985,1.11931 0.89545,0.64921 1.27602,0.55965 1.20886,0.31341 2.03715,0.31341 1.41034,0.11193 3.69374,0.0895 5.17123,-0.0895 3.58181,-0.0895 3.73851,-0.0672 1.00738,-3.51465 0.3358,-1.27602 0.20148,-1.11932 0.0895,-0.76113 -0.0672,-0.17909 -0.58204,-0.1567 -1.70136,-0.17909 -5.21601,-0.40296 -3.73851,-0.22386 -2.84306,-0.15671 -2.48488,-0.1567 0.44773,-3.49226 0.31341,-1.32079 0.40295,-0.96261 0.42534,-0.71637 0.4925,-0.58204 0.96261,-0.76113 1.4775,-0.67159 1.38795,-0.38057 1.25363,-0.22386 2.68635,-0.24625 2.68636,-0.11193 h 3.06692 l 4.29817,0.0224 1.09693,-2.97738 0.42534,-1.34317 0.47011,-1.70136 0.53727,-2.46249 -7.40986,0.26863 -6.17862,0.20148 -3.58181,0.22386 -2.70874,0.31341 -2.32817,0.47011 -1.38795,0.51488 -0.67159,0.31341 -0.64921,0.38057 -0.62681,0.42534 -0.62682,0.62682 -0.24625,0.22386 -0.71636,0.85068 -0.76113,1.07454 -0.51489,0.80591 -0.53727,0.78352 -0.42534,0.58204 -0.44772,0.4925 -0.35819,0.29102 z"
       id="path21" />
    <path
       style="fill:#ffffff;stroke:#ffffff;stroke-width:0.0777277"
       d="m 178.90267,130.13268 c -6.52403,-0.18503 -8.95753,-0.87799 -9.90839,-2.82147 -1.01926,-2.08329 -0.6579,-6.02122 1.01318,-11.04125 1.30673,-3.92548 2.88519,-7.01433 4.54083,-8.88583 1.50657,-1.70299 3.93458,-2.53083 8.82737,-3.00974 2.0569,-0.20132 9.8164,-0.16646 11.97938,0.0538 4.10933,0.41851 5.99538,0.98505 6.54576,1.96624 0.33863,0.60368 0.48232,1.57022 0.41903,2.8185 -0.2112,4.16517 -2.71039,9.0175 -5.0287,9.76356 -0.35791,0.11518 -0.8955,0.25888 -1.19465,0.31933 -0.90079,0.18205 -4.16057,0.4055 -8.35066,0.5724 -6.36584,0.25357 -8.37232,0.41247 -9.11792,0.72209 -0.49734,0.20651 -0.68436,0.56759 -0.63049,1.21725 0.0592,0.71362 0.34705,1.10905 1.01725,1.39736 1.35914,0.58469 2.95288,0.71489 10.17074,0.8309 3.25192,0.0523 6.17515,0.13952 6.49607,0.1939 1.57067,0.26612 1.65516,0.71333 0.66229,3.50547 -0.61487,1.72916 -0.77895,1.96444 -1.50648,2.16035 -0.88905,0.23939 -2.75835,0.29988 -8.7367,0.2827 -3.42157,-0.01 -6.66063,-0.0303 -7.19791,-0.0456 z m 10.37608,-15.20844 c 1.20189,-0.20792 2.04145,-0.61837 2.78428,-1.36121 1.20076,-1.20075 0.98641,-1.96523 -0.66684,-2.3783 -0.72782,-0.18184 -3.18228,-0.28671 -4.56008,-0.19483 -3.1925,0.2129 -6.31557,1.38861 -6.901,2.59796 -0.37789,0.7806 -0.10439,1.07256 1.21027,1.29198 1.95301,0.32596 6.36662,0.35005 8.13337,0.0444 z"
       id="path41" />
    <path
       style="fill:#ffffff;stroke:#ffffff;stroke-width:0.0960461"
       d="m 213.09434,130.16042 c -1.6296,-0.1608 -1.6175,-0.15606 -1.52373,-0.59761 0.047,-0.22151 1.22404,-4.36485 2.61554,-9.2074 2.77427,-9.65471 4.11694,-14.47898 4.25241,-15.27904 0.0857,-0.50608 0.0753,-0.52618 -0.38373,-0.74272 -0.36536,-0.17235 -1.15064,-0.26231 -3.48077,-0.39875 -5.12036,-0.29981 -7.12548,-0.63749 -7.80673,-1.31472 -0.30985,-0.30802 -0.36348,-0.46217 -0.36348,-1.04485 0,-0.8166 0.15717,-1.37808 1.18824,-4.245033 l 0.78592,-2.18533 0.70147,-0.002 c 0.38581,-0.001 8.66916,-0.0853 18.40744,-0.18729 9.73828,-0.10197 17.71702,-0.17238 17.73052,-0.15647 0.0902,0.10643 -2.61399,9.008483 -2.75989,9.085243 -0.099,0.0521 -3.13683,0.16865 -6.75075,0.25902 l -6.57081,0.16429 -2.08343,6.6619 c -2.35669,7.53573 -4.81378,14.99412 -5.60721,17.02045 -0.59337,1.51544 -0.70581,1.62337 -2.04285,1.9609 -0.68419,0.17273 -5.17038,0.32158 -6.30816,0.20931 z"
       id="path43" />
    <path
       style="fill:#ffffff;stroke:#ffffff;stroke-width:0.198477"
       d="m 231.12889,79.425133 c -1.36001,-1.132126 -2.42287,-1.220912 -4.52895,-0.378336 l -1.75342,0.701471 -0.88388,-0.937194 c -0.4951,-0.524954 -1.15899,-0.949975 -1.50931,-0.966253 -1.34568,-0.06254 -1.95507,0.08013 -2.36013,0.552559 -0.40569,0.473165 -0.46567,0.44741 -1.56394,-0.671653 -1.38425,-1.410449 -1.62854,-1.498388 -3.28036,-1.180872 -1.46915,0.282403 -1.95444,-0.03973 -1.95444,-1.297326 0,-1.523643 -1.79435,-2.337745 -3.11452,-1.413061 -0.7674,0.537507 -1.01868,0.286645 -1.31806,-1.315905 -0.30252,-1.619297 -0.72501,-2.018678 -2.41867,-2.28641 -0.75781,-0.119793 -1.46063,-0.351771 -1.56183,-0.515509 -0.10119,-0.163737 -0.0775,-0.771609 0.0526,-1.350825 0.29901,-1.330769 0.0305,-1.672526 -1.49363,-1.901081 -1.30846,-0.196218 -1.69669,-0.659091 -1.70278,-2.030201 -0.006,-1.292688 -0.54769,-2.14471 -1.57839,-2.481485 l -0.91214,-0.298037 v -2.065076 c 0,-1.808117 -0.0941,-2.22224 -0.75634,-3.328188 -0.66165,-1.104974 -0.73651,-1.433716 -0.59796,-2.62568 0.21233,-1.826673 -0.0138,-2.132161 -1.44173,-1.94754 -1.17209,0.151546 -11.37235,5.141214 -15.54926,7.606253 -2.99184,1.765657 -3.15351,2.000445 -2.96072,4.299801 0.18754,2.236746 0.0711,2.391479 -2.53894,3.373896 -2.01477,0.758359 -3.59358,0.849283 -4.49469,0.258852 -1.44374,-0.945973 -2.24953,-4.621003 -2.24953,-10.259639 0,-4.186219 0.30062,-4.795729 3.07214,-6.228914 1.23143,-0.636786 1.77362,-0.540948 2.7408,0.484458 1.60816,1.704946 2.49378,1.435809 13.86772,-4.214328 3.84556,-1.910329 7.38156,-3.801177 7.85778,-4.201885 0.77789,-0.654556 0.85012,-0.830869 0.71109,-1.735744 -0.48464,-3.15418 -0.52387,-2.884318 0.61813,-4.25223 1.1907,-1.426239 1.32557,-2.229977 0.62184,-3.705714 -0.43955,-0.921732 -0.43672,-0.938847 0.33804,-2.043811 0.9761,-1.392134 1.32211,-2.27284 1.66973,-4.250047 0.17692,-1.006287 0.65848,-2.196137 1.35618,-3.350874 1.17394,-1.942933 1.7759,-3.406407 1.794,-4.361563 0.0157,-0.83121 0.42291,-1.537707 1.72519,-2.993558 0.67818,-0.758149 1.22086,-1.687288 1.39923,-2.395661 0.21178,-0.841052 0.68714,-1.552933 1.74006,-2.605851 0.79677,-0.796772 1.44868,-1.6387529 1.44868,-1.8710679 0,-0.34566 0.31615,-0.422392 1.74034,-0.422392 h 1.74034 l -0.68469,0.853345 c -2.01098,2.5063139 -5.70898,8.3558569 -7.14333,11.2994039 -2.60248,5.340763 -3.51316,8.824892 -3.5245,13.48418 -0.007,2.722123 0.41394,3.37683 2.16918,3.37683 0.93711,0 1.97577,-0.405358 5.20892,-2.032879 4.38301,-2.206347 9.53186,-5.18737 12.43531,-7.199651 3.01356,-2.088592 5.70015,-6.402848 5.7273,-9.197194 0.019,-1.969748 -2.32364,-5.84396 -5.68064,-9.393935 l -1.3737,-1.4526679 h 7.56078 c 7.28935,0 7.54991,0.01743 7.2576,0.485506 -0.56663,0.907326 0.10374,2.1266069 2.06462,3.7550819 1.08217,0.89873 2.65946,1.104713 5.86306,0.765674 3.30147,-0.349396 5.45346,-1.041498 8.00235,-2.573637 1.7149,-1.0308229 2.08748,-1.3708789 2.06677,-1.8863249 l -0.0254,-0.628803 7.35687,0.174107 c 4.04627,0.09576 7.41434,0.23157 7.48456,0.301804 0.0702,0.07023 -0.13393,1.1033869 -0.45371,2.2958979 -0.95014,3.543474 -1.09932,3.922698 -1.48479,3.774776 -0.57041,-0.218889 -3.93485,0.820263 -5.9786,1.846572 -3.18122,1.597501 -6.48732,4.03012 -9.2369,6.796426 -4.17898,4.204446 -5.59924,7.17287 -5.83869,12.203268 -0.14769,3.102451 0.28363,5.385073 1.36253,7.210864 1.32656,2.244916 7.29564,7.974439 9.23337,8.862814 l 0.5561,0.254958 -0.63156,2.533684 c -0.8876,3.560829 -0.77621,3.379939 -1.60432,2.605355 -1.30665,-1.222187 -2.40499,-1.617149 -4.52155,-1.625941 -3.12931,-0.01299 -4.77978,0.620662 -6.68337,2.565897 -2.39673,2.449171 -4.08192,6.054217 -4.08192,8.732293 0,1.800254 0.42201,2.031828 3.39913,1.865264 1.37978,-0.07719 3.2176,-0.331247 4.08406,-0.56456 1.92362,-0.517964 5.56162,-2.240192 6.36728,-3.014273 0.73432,-0.705525 0.73395,-0.694711 -0.0763,2.341086 -0.36618,1.371918 -0.7806,2.924969 -0.92096,3.451222 -0.18378,0.6891 -0.43593,1.002194 -0.90114,1.118958 -0.96827,0.243019 -1.9262,1.431142 -2.3617,2.929233 -0.38328,1.318353 -1.06201,2.215603 -1.67603,2.215603 -0.17341,0 -0.91318,-0.472623 -1.64396,-1.050272 -2.12789,-1.682006 -3.17662,-1.421143 -4.2645,1.060778 -0.94475,2.155341 -1.24913,2.321513 -2.56752,1.401649 -2.90584,-2.027473 -3.02027,-2.050873 -4.01667,-0.821378 -0.38033,0.469339 -0.95324,1.171512 -1.27307,1.56038 l -0.5815,0.707036 z m -3.08179,-5.991291 c 3.34928,-1.067388 5.25775,-3.261151 6.0737,-6.981664 0.98467,-4.489889 1.46529,-18.262187 0.73641,-21.101388 -0.75086,-2.924736 -3.64998,-4.761556 -7.51538,-4.761556 -3.65177,0 -6.55437,1.615694 -11.02784,6.138495 -4.56759,4.617961 -7.31368,8.518152 -8.31661,11.811831 -0.44516,1.461949 -0.52353,2.246084 -0.4149,4.151375 0.11623,2.038356 0.26551,2.615962 1.12888,4.367951 1.68105,3.411247 5.0734,6.145128 8.52162,6.867554 0.64985,0.136149 2.95388,0.206894 5.12007,0.15721 3.1126,-0.07139 4.30666,-0.207658 5.69405,-0.649808 z m -51.89757,-8.281104 c 0.94576,-0.395166 1.1884,-1.074653 0.59547,-1.667579 -0.49884,-0.49884 -2.28783,-0.371983 -3.26424,0.231471 -0.88571,0.547399 -1.17233,1.394021 -0.55613,1.642665 0.66823,0.269635 2.34175,0.162441 3.2249,-0.206557 z M 173.6567,62.5793 c 2.22273,-1.120855 2.94254,-3.887163 1.41613,-5.442315 -0.78147,-0.79619 -2.30492,-0.875901 -3.37241,-0.176461 -1.55722,1.020331 -2.31107,4.577884 -1.20454,5.684419 0.6859,0.685903 1.71275,0.664578 3.16082,-0.06564 z m -1.78081,-7.424859 c 1.53608,-1.043795 1.66301,-2.487081 0.21873,-2.487081 -1.63363,0 -3.17827,1.802876 -2.37445,2.771415 0.45456,0.547711 1.04606,0.469696 2.15572,-0.284334 z m 34.70157,-1.002115 c 1.21324,-1.286412 2.59365,-4.256979 2.7278,-5.870085 0.10939,-1.31539 0.0864,-1.372394 -0.62443,-1.550813 -1.32922,-0.333613 -5.20307,1.09914 -6.2173,2.299483 -0.85833,1.015828 -0.42097,3.451593 0.9096,5.0658 1.03444,1.254963 2.05647,1.272701 3.20433,0.05562 z m 29.57232,-16.094884 c 3.50616,-1.64179 6.51018,-4.862973 8.53546,-9.152483 1.72834,-3.660579 2.06661,-6.000699 1.23867,-8.568946 -1.3621,-4.225306 -6.56238,-5.708913 -11.48426,-3.276391 -2.18647,1.080611 -4.59531,3.281428 -6.22829,5.690428 -2.12633,3.136752 -1.22497,3.315898 3.96023,0.787103 4.58726,-2.237192 5.23335,-2.394352 6.44104,-1.56682 3.43929,2.356641 1.68884,6.561506 -4.18145,10.04443 -2.4824,1.47284 -7.2758,4.909944 -7.40447,5.309346 -0.0495,0.15375 0.65098,0.597824 1.55668,0.98683 2.30804,0.991346 5.10831,0.89753 7.56639,-0.253497 z m -0.0645,-8.866473 c 2.35384,-1.22971 3.42498,-3.99291 1.98644,-5.124458 -1.81116,-1.424665 -5.09744,0.338754 -5.52345,2.963886 -0.12877,0.793528 -0.0328,1.049483 0.64876,1.7311 0.88464,0.884632 1.7661,1.015703 2.88825,0.429472 z"
       id="path7" />
  </g>
</svg>
