<?xml version="1.0" encoding="UTF-8" standalone="no"?>
<!-- Created with Inkscape (http://www.inkscape.org/) -->

<svg
   width="100mm"
   height="200mm"
   viewBox="0 0 100 200"
   version="1.1"
   id="svg1"
   inkscape:version="1.3.2 (091e20e, 2023-11-25, custom)"
   sodipodi:docname="s-logo.svg"
   xmlns:inkscape="http://www.inkscape.org/namespaces/inkscape"
   xmlns:sodipodi="http://sodipodi.sourceforge.net/DTD/sodipodi-0.dtd"
   xmlns="http://www.w3.org/2000/svg"
   xmlns:svg="http://www.w3.org/2000/svg">
  <sodipodi:namedview
     id="namedview1"
     pagecolor="#ffffff"
     bordercolor="#000000"
     borderopacity="0.25"
     inkscape:showpageshadow="2"
     inkscape:pageopacity="0.0"
     inkscape:pagecheckerboard="0"
     inkscape:deskcolor="#d1d1d1"
     inkscape:document-units="mm"
     inkscape:zoom="0.53362093"
     inkscape:cx="397.28576"
     inkscape:cy="561.25984"
     inkscape:window-width="1440"
     inkscape:window-height="837"
     inkscape:window-x="1352"
     inkscape:window-y="-8"
     inkscape:window-maximized="1"
     inkscape:current-layer="layer1" />
  <defs
     id="defs1" />
  <g
     inkscape:label="Camada 1"
     inkscape:groupmode="layer"
     id="layer1">
    <path
       id="path30"
       style="fill:#ff0000;stroke:#000000"
       d="m 65.026081,6.0691544 c -0.15835,-0.02846 -0.36921,-0.0014 -0.660427,0.07596 -0.721917,0.1918647 -0.793987,0.3170667 -0.869187,1.5141181 -0.0451,0.7178557 -0.193937,1.4182501 -0.330727,1.5564941 -0.15671,0.158364 -0.248567,0.133885 -0.248567,-0.06615 0,-0.6124597 -0.48027,-0.3096817 -0.753957,0.4754227 -0.15205,0.4361697 -0.567417,0.9258027 -0.922934,1.0877887 -0.772217,0.351847 -1.255194,1.18321 -1.477931,2.542997 -0.14776,0.902104 -0.23481,0.99191 -0.885737,0.91519 -0.562337,-0.06628 -0.721914,0.02598 -0.721914,0.417028 0,0.27609 -0.29766,0.781672 -0.661447,1.123446 -0.363797,0.341775 -0.665797,0.868416 -0.671797,1.170471 -0.006,0.325191 -0.356757,0.765153 -0.859884,1.078487 -0.467337,0.291041 -1.067634,0.975652 -1.334284,1.521355 -0.266647,0.545702 -0.649407,0.992187 -0.850584,0.992187 -0.20117,0 -0.507807,0.267891 -0.681097,0.595313 -0.404657,0.764586 -1.351851,1.775386 -1.669141,1.781286 -0.135187,0.0025 -0.627457,0.42137 -1.093984,0.930693 -0.466517,0.509322 -1.084984,0.926041 -1.374581,0.926041 -0.387937,0 -0.526577,0.177629 -0.526577,0.674378 0,0.370838 -0.22325,0.838799 -0.496097,1.040246 -0.551527,0.407194 -0.31664,0.816707 0.559137,0.974618 0.289367,0.05218 0.566247,0.302014 0.614947,0.555005 0.0696,0.361281 -0.0975,0.45992 -0.777727,0.45992 -0.673607,0 -0.795224,0.07035 -0.548287,0.317293 0.430987,0.430967 0.400507,1.181284 -0.0548,1.35599 -0.204557,0.0785 -0.451837,0.508068 -0.549837,0.954464 -0.175467,0.798929 -0.734684,1.078072 -1.070734,0.534334 -0.243047,-0.393265 -1.439068,0.965287 -1.612298,1.831413 -0.10097,0.504838 0.01597,0.84963 0.40876,1.205094 0.694741,0.628739 0.699561,0.945162 0.01447,0.945162 -0.33248,0 -0.634151,0.258784 -0.7953,0.682646 -0.29783,0.783355 -0.87872,0.731837 -0.999939,-0.08888 -0.04512,-0.305454 -0.259547,-0.702613 -0.476457,-0.882633 -0.32664,-0.27109 -0.420661,-0.225329 -0.549321,0.26665 -0.11091,0.424131 -0.299208,0.556424 -0.658357,0.462504 -0.934259,-0.244315 -1.805575,1.26173 -1.805575,3.121257 0,0.32902 -0.434138,1.004968 -0.992187,1.544608 -1.534369,1.483749 -1.91823,1.994777 -1.91823,2.554366 0,0.32897 -0.331529,0.673797 -0.912089,0.949296 -0.796799,0.3781 -0.922087,0.571798 -0.992187,1.533757 -0.07838,1.075909 -0.102172,1.101225 -1.045931,1.101225 -1.255483,0 -2.274975,1.119612 -1.810226,1.987986 0.16125,0.30132 0.256674,0.989554 0.211874,1.529091 -0.07031,0.846817 -0.172118,0.981467 -0.743107,0.985467 -0.70322,0.005 -3.567368,1.279951 -3.830257,1.705318 -0.08599,0.13912 -0.0034,0.501887 0.183451,0.806657 0.30481,0.497247 0.246786,0.630357 -0.561723,1.294491 -0.788519,0.647737 -0.916264,0.926987 -1.024744,2.234988 -0.101159,1.219874 -0.211937,1.494481 -0.602547,1.494481 -0.263209,0 -0.554072,-0.238117 -0.646472,-0.529167 -0.09237,-0.291037 -0.392246,-0.529167 -0.666626,-0.529167 -0.437819,0 -0.482605,0.15377 -0.363285,1.256764 0.17805,1.645831 -0.392625,3.540139 -1.185974,3.935656 -1.059789,0.528367 -1.13992,0.759647 -0.530201,1.534784 0.47608,0.605234 0.512109,0.774774 0.206189,0.973064 -0.639649,0.414597 -1.397808,0.144577 -1.562178,-0.556557 -0.14078,-0.600457 -0.304718,-0.691267 -1.027328,-0.568947 -0.382709,0.0648 -1.088305,1.776651 -1.088305,2.640125 0,0.548217 0.217991,0.972224 0.69143,1.344621 0.72502,0.570297 0.712496,1.346674 -0.0217,1.346674 -0.222849,0 -0.405143,0.11907 -0.405143,0.264587 0,0.40105 -0.561947,0.31673 -1.092956,-0.163817 -0.32141,-0.29089 -0.699107,-0.37126 -1.177706,-0.25114 -0.64022,0.16068 -0.690444,0.26328 -0.550354,1.126534 0.190929,1.176574 -0.132999,1.821398 -1.027328,2.045858 -0.546099,0.13706 -0.931286,0.672887 -1.877405,2.610165 -0.654769,1.340704 -1.383709,2.794755 -1.619539,3.231312 -0.23583,0.436557 -0.479152,1.471511 -0.541052,2.300108 -0.12609,1.688058 0.07191,2.120058 2.267045,4.93869 0.689439,0.885257 1.586794,2.059248 1.994193,2.609125 0.40741,0.549877 2.472851,2.744825 4.589901,4.877713 4.230366,4.262026 4.844827,4.618123 6.502446,3.768739 0.476989,-0.244417 0.926622,-0.522667 0.999422,-0.618567 0.07276,-0.0958 0.549014,-0.462237 1.058333,-0.813894 0.50932,-0.35166 1.246237,-0.954634 1.637626,-1.339964 0.39139,-0.385327 1.343888,-1.123574 2.116667,-1.640721 0.772769,-0.517147 1.936086,-1.485831 2.584855,-2.152828 0.648759,-0.666994 1.288489,-1.212831 1.421619,-1.212831 0.491149,0 3.586738,-2.400128 3.747058,-2.905235 0.10087,-0.317817 0.58437,-0.648054 1.23455,-0.842844 0.587899,-0.17614 1.253173,-0.601837 1.478462,-0.945664 0.22528,-0.34383 0.747814,-0.799887 1.160653,-1.013374 0.41285,-0.21349 0.823306,-0.678827 0.912606,-1.034554 0.11245,-0.44805 0.68573,-0.934357 1.865514,-1.582841 0.936664,-0.51486 2.621335,-1.680601 3.743929,-2.590008 1.122584,-0.909394 2.457928,-1.878998 2.967245,-2.154898 0.509317,-0.275887 1.253171,-0.848734 1.653118,-1.272791 0.39995,-0.424057 0.834327,-0.704727 0.965317,-0.623727 0.130987,0.081 0.518227,-0.14775 0.860404,-0.508497 0.808664,-0.852554 1.335551,-0.833174 1.755441,0.0646 0.299517,0.640417 0.278247,0.775394 -0.17932,1.149284 -0.285117,0.232957 -0.601537,0.867234 -0.703307,1.409721 -0.126567,0.674667 -0.383767,1.076514 -0.813384,1.272264 -0.491867,0.224107 -0.627867,0.493307 -0.627867,1.239711 0,0.733927 -0.13677,1.012754 -0.594277,1.213874 -1.117544,0.491267 -1.749418,2.845165 -1.173564,4.370766 0.20769,0.550257 0.1877,1.019524 -0.077,1.821588 -0.39276,1.190074 -0.800977,1.426034 -0.800977,0.463017 0,-0.848664 -0.1897,-0.968834 -1.053684,-0.667654 -0.705777,0.246047 -0.740537,0.333827 -0.679537,1.710478 0.0354,0.798067 0.20157,1.588561 0.36949,1.756471 0.710964,0.710977 0.0617,3.061452 -1.003034,3.631279 -0.818487,0.438037 -1.229444,0.32065 -1.595761,-0.455267 l -0.34365,-0.727594 -0.211357,0.749824 c -0.23241,0.825197 -0.0991,1.399161 0.482657,2.077898 0.210437,0.24551 0.650284,1.674261 0.977714,3.174982 0.327437,1.500711 0.685907,2.936858 0.796324,3.191518 0.1415,0.32634 0.0819,0.46302 -0.202567,0.46302 -0.748037,0 -1.280094,-0.33325 -1.514111,-0.94878 -0.15488,-0.40734 -0.581307,-0.70622 -1.274854,-0.892967 -0.875924,-0.23587 -1.137704,-0.480127 -1.643811,-1.534261 l -0.602027,-1.254184 -0.254247,0.845944 c -0.20756,0.691877 -0.14939,1.022667 0.318327,1.815381 0.933014,1.581357 0.22565,2.486567 -1.634007,2.091347 l -0.853694,-0.18139 0.727604,0.77153 c 0.40018,0.42436 0.727604,1.01853 0.727604,1.32033 0,0.36026 0.272645,0.66162 0.793746,0.87747 0.436567,0.18083 0.802584,0.40356 0.813384,0.49506 0.0108,0.0915 0.0652,0.4056 0.12092,0.69815 0.0557,0.29254 -0.009,0.70926 -0.14366,0.92604 -0.20191,0.32459 -0.339277,0.33594 -0.778754,0.0636 -0.792766,-0.49131 -1.025995,-0.40944 -1.118795,0.39429 -0.04983,0.43174 -0.267799,0.76054 -0.538469,0.81184 -0.344219,0.0653 -0.528787,-0.20765 -0.759126,-1.12241 -0.16736,-0.66463 -0.379389,-1.20606 -0.471289,-1.20406 -0.57136,0.0139 -0.760451,0.54324 -0.707451,1.98024 0.07092,1.92439 -0.397499,3.18658 -1.263489,3.40392 -0.580799,0.14579 -0.636595,0.30183 -0.681095,1.91875 -0.02664,0.9682 -0.152063,1.95483 -0.279053,2.19211 -0.146689,0.2741 -0.09828,0.67083 0.132809,1.08831 0.20006,0.36141 0.368104,1.29286 0.373104,2.06964 l 0.0088,1.41232 -1.12448,-0.18294 c -1.338188,-0.21751 -1.75585,-0.52876 -1.30948,-0.97513 0.385939,-0.38597 0.422492,-0.83694 0.04909,-0.60617 -0.512219,0.31657 -1.326042,2.24453 -1.702221,4.03283 -0.51936,2.46894 -0.848235,3.24115 -1.380795,3.24115 -0.401329,0 -0.394581,0.0443 0.05943,0.38085 0.42011,0.31146 0.458133,0.47137 0.208773,0.88057 -0.16767,0.27514 -0.38887,1.28837 -0.49196,2.25103 -0.128999,1.20455 -0.343267,1.89111 -0.687296,2.20245 -0.35561,0.32183 -0.500228,0.81291 -0.500228,1.70118 0,1.05807 -0.141338,1.40261 -0.926042,2.2593 -1.179019,1.28718 -1.221852,1.96629 -0.124023,1.96629 0.972143,0 1.225181,0.5122 0.852661,1.72599 -0.24862,0.81008 -0.205083,0.94498 0.508496,1.58078 0.42913,0.38236 0.733761,0.83653 0.676961,1.00924 -0.178289,0.54167 -1.212264,0.50444 -1.824178,-0.0656 -0.642569,-0.59866 -0.955088,-0.66036 -1.522387,-0.30127 -0.31916,0.20205 -0.304434,0.45912 0.09973,1.74408 0.34986,1.11247 0.437227,2.00162 0.334347,3.39669 -0.07666,1.03946 -0.0146,2.51926 0.137459,3.28817 0.24669,1.24746 0.222855,1.43716 -0.218075,1.75958 -0.432909,0.31655 -0.450714,0.44138 -0.146244,1.01028 0.19116,0.35715 0.319237,0.99446 0.284737,1.41593 -0.03446,0.42146 0.07352,1.10136 0.240296,1.51102 0.166789,0.40965 0.30334,0.90791 0.30334,1.10691 0,0.19901 0.227279,0.43383 0.504879,0.52193 0.590993,0.18758 0.912516,0.84415 0.529167,1.08107 -0.2824,0.17453 0.470108,0.96762 1.851566,1.95131 0.45035,0.32068 0.818555,0.75384 0.818555,0.96221 0,0.20838 0.178595,0.39366 0.396875,0.41186 0.21829,0.0182 0.545704,0.0507 0.727604,0.0724 0.18187,0.0217 0.306035,0.27471 0.275436,0.56224 -0.10455,0.98374 3.020182,6.74067 3.658691,6.74067 0.11336,0 0.509783,0.28118 0.881083,0.62529 0.47537,0.44056 0.674894,0.89927 0.674894,1.54977 0,0.86342 0.951976,2.43759 2.366264,3.91294 0.22646,0.23625 0.796649,0.98719 1.266586,1.66863 0.822194,1.19223 1.672051,1.59536 2.055668,0.97462 0.287477,-0.46515 0.884454,-0.28421 1.078484,0.32711 0.175257,0.55221 0.771854,1.36948 2.559525,3.50418 0.400177,0.47787 0.727597,1.12865 0.727597,1.44643 0,0.85805 0.462827,1.5688 1.387501,2.13113 0.453367,0.27571 0.922367,0.44071 1.041797,0.36691 0.683427,-0.42239 -0.26781,-3.63127 -1.294497,-4.36718 -0.698804,-0.5009 -1.438211,-2.07387 -1.251591,-2.66185 0.0988,-0.31146 0.0206,-0.48214 -0.22066,-0.48214 -0.205537,0 -0.579147,-0.22675 -0.829914,-0.50385 -0.379887,-0.41978 -0.400517,-0.59214 -0.12454,-1.03404 0.288737,-0.46235 0.2232,-0.65355 -0.511077,-1.48984 -0.499447,-0.56884 -0.844454,-1.25197 -0.846454,-1.67793 -0.002,-0.39512 -0.2953,-1.65675 -0.651637,-2.80396 -0.440727,-1.41902 -0.570757,-2.23023 -0.406687,-2.5368 0.154647,-0.28897 0.107417,-0.9646 -0.13178,-1.88309 -0.466687,-1.79199 -0.821207,-5.41022 -0.764807,-7.80727 0.19862,-8.44465 0.440737,-11.08976 1.192684,-13.01781 0.13037,-0.33427 0.2372,-1.24511 0.2372,-2.02417 0,-0.77905 0.232597,-2.77685 0.516757,-4.43901 0.284157,-1.66216 0.453937,-3.26163 0.377237,-3.55482 -0.0767,-0.29319 0.10745,-0.97311 0.409277,-1.5105 0.30183,-0.53739 0.548797,-1.3523 0.548797,-1.81126 0,-0.77233 0.913864,-3.07937 1.339964,-3.38274 0.102197,-0.0728 0.331777,-0.84666 0.510047,-1.71979 0.178267,-0.87312 0.405477,-1.70656 0.504877,-1.85208 0.0994,-0.14552 0.338087,-0.74083 0.530707,-1.32292 0.192617,-0.58208 0.509747,-1.41552 0.704867,-1.85208 0.534857,-1.19672 2.247798,-6.2221 2.479938,-7.27604 0.186297,-0.84581 5.985714,-12.57542 6.580951,-13.3103 0.14067,-0.17366 0.436947,-0.851517 0.658877,-1.506364 0.384627,-1.134894 1.746631,-4.025716 3.027182,-6.425934 0.32709,-0.613064 1.285664,-2.424325 2.130608,-4.025046 3.294082,-6.240464 4.082616,-7.687125 4.397646,-8.069745 0.17972,-0.218277 0.652167,-1.111244 1.050054,-1.984368 0.397887,-0.873114 0.834584,-1.766081 0.969964,-1.984358 0.13538,-0.21828 0.693027,-1.208144 1.239714,-2.199338 0.546697,-0.991214 1.509201,-2.598545 2.138868,-3.571859 0.629664,-0.973314 1.928128,-3.079072 2.885082,-4.679793 0.956944,-1.600721 1.890661,-3.088995 2.075318,-3.307272 0.18466,-0.21828 0.41738,-0.724407 0.517277,-1.124474 0.0998,-0.400057 0.471967,-0.995374 0.826817,-1.322904 0.354847,-0.327537 0.893174,-1.071554 1.196301,-1.653638 0.30312,-0.582077 1.011887,-1.561904 1.575094,-2.177118 0.970584,-1.060164 1.165501,-1.643881 1.039724,-3.114522 -0.094,-1.099074 -0.919577,-3.225032 -1.774561,-4.569206 -0.487727,-0.766804 -0.886764,-1.442271 -0.886764,-1.500671 0,-0.306281 -3.103035,-5.457566 -3.834369,-6.365505 -0.468867,-0.582079 -0.932644,-1.31335 -1.030944,-1.624707 -0.20487,-0.648833 -1.204324,-0.930318 -1.922351,-0.541569 -0.268527,0.145388 -0.946144,0.672619 -1.505841,1.171505 -0.772304,0.688381 -1.170514,0.868498 -1.651571,0.747758 -0.471227,-0.11827 -0.782364,0.01185 -1.212841,0.506946 -0.735077,0.845439 -1.199874,0.83956 -2.104768,-0.02739 l -0.723977,-0.693497 -1.250564,1.357539 c -1.179911,1.280899 -1.278461,1.333468 -1.733218,0.921908 -0.718687,-0.650399 -1.385244,-0.02239 -1.198374,1.12913 0.16455,1.013949 -0.415057,1.739808 -0.767907,0.961698 -0.117157,-0.258379 -0.220437,-0.697461 -0.229437,-0.975651 -0.0247,-0.767349 -0.677477,-0.850508 -0.677477,-0.0863 0,0.850699 -0.783644,1.540464 -1.528581,1.345654 -0.446067,-0.11665 -0.637567,-0.0053 -0.815444,0.473356 -0.12789,0.34401 -0.18039,0.761963 -0.11679,0.929142 0.149917,0.39431 -0.36171,0.713793 -0.579287,0.361735 -0.31562,-0.510679 -0.928624,-0.278232 -0.928624,0.351918 0,0.960204 -0.874927,1.594961 -1.955941,1.419541 -0.689274,-0.111857 -1.020904,-0.0245 -1.369941,0.36122 -0.25327,0.279877 -0.623347,0.509007 -0.822677,0.509007 -0.199327,0 -0.468467,0.278657 -0.597894,0.619087 -0.19536,0.513847 -0.37857,0.597484 -1.080034,0.494537 -0.819567,-0.12029 -0.840047,-0.0998 -0.670237,0.673334 0.15879,0.722927 0.0956,0.825117 -0.681607,1.096054 -0.471327,0.1643 -1.061384,0.483597 -1.311024,0.709517 -0.41302,0.373787 -0.501257,0.359747 -0.981337,-0.15555 -0.629104,-0.675284 -0.959194,-0.324577 -0.595304,0.632517 0.300797,0.791167 -0.17538,1.294724 -0.565337,0.597897 -0.13359,-0.23871 -0.484417,-0.434077 -0.779797,-0.434077 -0.450997,0 -0.510797,0.11905 -0.373617,0.743614 0.11858,0.539907 0.0264,0.867317 -0.33538,1.194754 -0.470917,0.426127 -0.535437,0.421367 -1.178211,-0.0842 -0.526667,-0.414277 -0.825037,-0.480157 -1.321364,-0.291457 -0.531197,0.201937 -0.620707,0.383927 -0.521407,1.060394 0.14179,0.966104 0.098,0.977004 -1.091914,0.274917 -1.431281,-0.844474 -1.538491,-1.758008 -0.273887,-2.334205 0.363997,-0.16585 0.599797,-0.40188 0.523997,-0.524517 -0.0758,-0.12263 0.214997,-0.560697 0.645947,-0.973574 0.430947,-0.41287 1.167681,-1.515814 1.637618,-2.450998 0.521257,-1.037344 1.088294,-1.789448 1.454164,-1.928558 0.411697,-0.15653 0.579567,-0.413387 0.535367,-0.819587 -0.0445,-0.409287 0.0991,-0.624777 0.465087,-0.699177 0.673927,-0.13703 0.916904,-0.519275 0.921904,-1.449524 0.003,-0.585859 0.17202,-0.79974 0.805627,-1.020609 0.989404,-0.34491 1.712241,-1.59623 1.332214,-2.306319 -0.33409,-0.62425 -0.0562,-0.92339 0.459917,-0.495061 0.32122,0.26659 0.447187,0.231331 0.685747,-0.190169 0.16074,-0.28401 0.619897,-0.815464 1.020084,-1.181323 0.400177,-0.365847 0.727597,-0.750594 0.727597,-0.854728 0,-0.104134 0.357187,-0.580359 0.793744,-1.058334 0.436557,-0.477974 0.793747,-0.96367 0.793747,-1.07952 0,-0.115852 0.609374,-0.853132 1.353921,-1.63866 0.744547,-0.785528 1.488671,-1.660989 1.653631,-1.945101 0.16495,-0.284113 0.514297,-0.895786 0.776694,-1.35909 0.2624,-0.463304 0.713387,-1.078232 1.001997,-1.366842 0.288627,-0.288609 0.450787,-0.644579 0.360187,-0.791166 -0.21999,-0.355951 0.321967,-0.97505 1.511521,-1.725993 0.708237,-0.447092 1.239534,-1.148005 1.929078,-2.544031 l 0.951877,-1.926497 -0.43047,-1.261938 c -0.236717,-0.693916 -0.641204,-1.374273 -0.898644,-1.512053 -0.318247,-0.170323 -0.508257,-0.66977 -0.593757,-1.560111 -0.0983,-1.022703 -0.294247,-1.458511 -0.894514,-1.989543 -0.765397,-0.677114 -0.765947,-0.68044 -0.17312,-0.846977 0.663167,-0.186299 0.798927,-1.081992 0.30438,-2.006079 -0.22492,-0.420269 -0.18665,-0.773542 0.168977,-1.562178 0.38463,-0.852961 0.41144,-1.204 0.16329,-2.151807 -0.16306,-0.622825 -0.293927,-1.4298867 -0.290927,-1.7936884 0.0106,-1.3057124 -0.34033,-2.6458315 -0.692467,-2.6458315 -0.19513,0 -0.452557,-0.175707 -0.572567,-0.390157 -0.0807,-0.1442567 -0.18686,-0.2278517 -0.345197,-0.2563147 z" />
  </g>
</svg>
