<?xml version="1.0" encoding="UTF-8" standalone="no"?>
<!-- Created with Inkscape (http://www.inkscape.org/) -->

<svg
   width="170mm"
   height="230mm"
   viewBox="0 0 170 230"
   version="1.1"
   id="svg1"
   xml:space="preserve"
   inkscape:version="1.3.2 (091e20e, 2023-11-25, custom)"
   sodipodi:docname="specilized logo.svg"
   xmlns:inkscape="http://www.inkscape.org/namespaces/inkscape"
   xmlns:sodipodi="http://sodipodi.sourceforge.net/DTD/sodipodi-0.dtd"
   xmlns="http://www.w3.org/2000/svg"
   xmlns:svg="http://www.w3.org/2000/svg"><sodipodi:namedview
     id="namedview1"
     pagecolor="#ffffff"
     bordercolor="#000000"
     borderopacity="0.25"
     inkscape:showpageshadow="2"
     inkscape:pageopacity="0.0"
     inkscape:pagecheckerboard="0"
     inkscape:deskcolor="#d1d1d1"
     inkscape:document-units="mm"
     inkscape:zoom="0.32327944"
     inkscape:cx="392.84899"
     inkscape:cy="771.77813"
     inkscape:window-width="1440"
     inkscape:window-height="837"
     inkscape:window-x="1352"
     inkscape:window-y="-8"
     inkscape:window-maximized="1"
     inkscape:current-layer="layer1" /><defs
     id="defs1" /><g
     inkscape:label="Camada 1"
     inkscape:groupmode="layer"
     id="layer1"><path
       id="path1"
       style="fill:#ff0000;stroke:#000000"
       d="m 99.246546,10.327005 c -0.15835,-0.02846 -0.369207,-0.002 -0.660427,0.07545 -0.721914,0.191865 -0.793984,0.317586 -0.869184,1.514636 -0.0451,0.717856 -0.19394,1.418251 -0.33073,1.556495 -0.156707,0.158363 -0.248567,0.133888 -0.248567,-0.06615 0,-0.61246 -0.480267,-0.309681 -0.753957,0.475423 -0.152047,0.436169 -0.567417,0.925803 -0.922934,1.087789 -0.772214,0.351846 -1.255194,1.183211 -1.477931,2.542997 -0.14776,0.902103 -0.23481,0.99191 -0.885734,0.91519 -0.562337,-0.06628 -0.721917,0.02598 -0.721917,0.417028 0,0.27609 -0.29767,0.781672 -0.661447,1.123446 -0.363797,0.341775 -0.665797,0.868417 -0.671797,1.170471 -0.006,0.325191 -0.356757,0.765154 -0.859884,1.078487 -0.467337,0.291041 -1.067634,0.975652 -1.334281,1.521355 -0.26665,0.545701 -0.649407,0.992187 -0.850587,0.992187 -0.201167,0 -0.507807,0.267891 -0.681097,0.595313 -0.404657,0.764585 -1.351851,1.775386 -1.669138,1.781286 -0.13519,0.0025 -0.627457,0.42137 -1.093984,0.930693 -0.466517,0.509321 -1.084984,0.926041 -1.374584,0.926041 -0.387937,0 -0.526577,0.177114 -0.526577,0.673861 0,0.370839 -0.223247,0.839317 -0.496097,1.040763 -0.551527,0.407194 -0.316637,0.816707 0.559137,0.974618 0.28937,0.05218 0.566247,0.301497 0.614947,0.554488 0.0696,0.361282 -0.0975,0.460437 -0.777727,0.460437 -0.673604,0 -0.795224,0.07035 -0.548284,0.317293 0.430987,0.430967 0.400537,1.181284 -0.0548,1.35599 -0.20456,0.0785 -0.45184,0.508068 -0.549841,0.954464 -0.17547,0.798928 -0.734687,1.077556 -1.070735,0.533817 -0.24305,-0.393263 -1.439075,0.965805 -1.612305,1.83193 -0.10097,0.504837 0.01597,0.84963 0.40876,1.205094 0.69474,0.628738 0.699558,0.945162 0.01447,0.945162 -0.33248,0 -0.634152,0.258784 -0.7953,0.682646 -0.29783,0.783354 -0.878721,0.731832 -0.999939,-0.08888 -0.04512,-0.305453 -0.259547,-0.702613 -0.476457,-0.882633 -0.32664,-0.27109 -0.420661,-0.225328 -0.549321,0.26665 -0.11091,0.424131 -0.299209,0.556424 -0.658357,0.462504 -0.934258,-0.244313 -1.805575,1.261732 -1.805575,3.121257 0,0.329019 -0.434139,1.004451 -0.992187,1.544092 -1.534368,1.483746 -1.91823,1.995294 -1.91823,2.554882 0,0.32897 -0.331529,0.673798 -0.912089,0.949296 -0.796798,0.3781 -0.922087,0.571799 -0.992187,1.533757 -0.07838,1.075908 -0.102173,1.101225 -1.045931,1.101225 -1.255482,0 -2.274974,1.119614 -1.810226,1.987992 0.16125,0.30132 0.256674,0.989049 0.211874,1.528589 -0.07031,0.846818 -0.172119,0.98147 -0.743107,0.98547 -0.70322,0.0048 -3.567369,1.279962 -3.830257,1.705322 -0.08599,0.13913 -0.0034,0.502416 0.183451,0.807186 0.30481,0.497248 0.246785,0.630356 -0.561723,1.294494 -0.788518,0.64774 -0.916264,0.926473 -1.024744,2.234489 -0.101158,1.219878 -0.211937,1.494999 -0.602547,1.494999 -0.263208,0 -0.554072,-0.238118 -0.646472,-0.529166 -0.09237,-0.29104 -0.392246,-0.529167 -0.666626,-0.529167 -0.437818,0 -0.482605,0.153763 -0.363285,1.256771 0.17805,1.645836 -0.392626,3.540157 -1.185974,3.935677 -1.059788,0.528368 -1.139919,0.759652 -0.530201,1.53479 0.47608,0.605238 0.512109,0.774777 0.206189,0.973067 -0.639648,0.4146 -1.397808,0.144583 -1.562178,-0.556555 -0.14078,-0.600458 -0.304718,-0.691277 -1.027328,-0.568957 -0.382708,0.06479 -1.088305,1.77666 -1.088305,2.640148 0,0.54822 0.217992,0.972223 0.69143,1.344621 0.72502,0.5703 0.712492,1.346688 -0.0217,1.346688 -0.222848,0 -0.405143,0.119065 -0.405143,0.264583 0,0.40105 -0.561948,0.316736 -1.092956,-0.163814 -0.32141,-0.29089 -0.699108,-0.371784 -1.177706,-0.251664 -0.64022,0.16069 -0.690444,0.263805 -0.550354,1.127063 0.190928,1.176578 -0.133,1.82141 -1.027328,2.04587 -0.546098,0.13706 -0.931287,0.672378 -1.877405,2.609646 -0.654768,1.340704 -1.383709,2.795275 -1.619539,3.231832 -0.23583,0.436557 -0.479152,1.471511 -0.541052,2.300108 -0.12609,1.688058 0.07191,2.120068 2.267045,4.93868 0.689438,0.885267 1.586795,2.059258 1.994193,2.609135 0.40741,0.549877 2.472853,2.744835 4.589901,4.877703 4.230362,4.262045 4.844828,4.618145 6.502446,3.768755 0.476988,-0.24442 0.926622,-0.52319 0.999422,-0.61909 0.07276,-0.0958 0.549015,-0.46172 1.058333,-0.813377 0.50932,-0.35166 1.246238,-0.954634 1.637626,-1.339964 0.39139,-0.385327 1.343889,-1.123574 2.116667,-1.640721 0.772768,-0.517147 1.936087,-1.486351 2.584855,-2.153348 0.648758,-0.666994 1.288489,-1.212321 1.421619,-1.212321 0.491148,0 3.586738,-2.400638 3.747058,-2.905745 0.10087,-0.317817 0.58437,-0.648047 1.23455,-0.842834 0.587898,-0.17614 1.253174,-0.601337 1.478462,-0.945164 0.22528,-0.34383 0.747815,-0.799877 1.160653,-1.013364 0.41285,-0.21349 0.823306,-0.679347 0.912606,-1.035077 0.11245,-0.448047 0.685735,-0.934354 1.865519,-1.582841 0.936671,-0.514857 2.621342,-1.680088 3.743936,-2.589495 1.122581,-0.909374 2.457925,-1.878988 2.967242,-2.154888 0.509317,-0.275887 1.253174,-0.848724 1.653121,-1.272781 0.399947,-0.424057 0.834324,-0.704737 0.965314,-0.623737 0.13099,0.081 0.518227,-0.14774 0.860404,-0.508491 0.808667,-0.852558 1.335554,-0.833186 1.755441,0.0646 0.299517,0.640421 0.278247,0.774878 -0.17932,1.148768 -0.285117,0.232967 -0.601537,0.867754 -0.703304,1.410241 -0.12657,0.674667 -0.38377,1.076514 -0.813387,1.272264 -0.491867,0.224107 -0.627867,0.492787 -0.627867,1.239191 0,0.733927 -0.136767,1.013274 -0.594274,1.214394 -1.117544,0.491267 -1.749421,2.845155 -1.173564,4.370766 0.207687,0.550257 0.187697,1.019524 -0.077,1.821588 -0.392757,1.190074 -0.800977,1.426034 -0.800977,0.463017 0,-0.848664 -0.189697,-0.968834 -1.053684,-0.667654 -0.705774,0.246047 -0.740534,0.333827 -0.679534,1.710478 0.0354,0.798067 0.201567,1.588561 0.369487,1.756471 0.710957,0.710977 0.0617,3.060942 -1.003034,3.630769 -0.818487,0.438037 -1.229444,0.32116 -1.595761,-0.454757 l -0.343647,-0.727597 -0.21136,0.749817 c -0.23241,0.825207 -0.0991,1.398651 0.482657,2.077388 0.21044,0.24552 0.650287,1.674264 0.977714,3.174994 0.32744,1.50071 0.685907,2.93739 0.796327,3.19205 0.141497,0.32634 0.0819,0.46302 -0.20257,0.46302 -0.748037,0 -1.280094,-0.33325 -1.514111,-0.94878 -0.15488,-0.40734 -0.581307,-0.70622 -1.274854,-0.89297 -0.875914,-0.23587 -1.137704,-0.48065 -1.643813,-1.53479 l -0.602031,-1.25367 -0.254248,0.84595 c -0.207564,0.69186 -0.149387,1.02267 0.318327,1.81539 0.933018,1.58136 0.225655,2.48656 -1.634009,2.09134 l -0.853694,-0.18138 0.727604,0.77153 c 0.40018,0.42436 0.727604,1.01801 0.727604,1.31981 0,0.36026 0.272646,0.66214 0.79375,0.87799 0.43657,0.18083 0.802587,0.40356 0.813387,0.49506 0.01081,0.0915 0.06522,0.4056 0.120923,0.69815 0.05571,0.29254 -0.0088,0.70926 -0.143661,0.92604 -0.201908,0.32459 -0.339285,0.3359 -0.778763,0.0636 -0.792766,-0.49131 -1.025995,-0.40944 -1.118795,0.39429 -0.04983,0.43174 -0.267799,0.76054 -0.538469,0.81184 -0.344218,0.0653 -0.528788,-0.20767 -0.759126,-1.12241 -0.16736,-0.66463 -0.379389,-1.20658 -0.471289,-1.20458 -0.57136,0.0139 -0.760451,0.54376 -0.707451,1.98076 0.07092,1.92437 -0.397499,3.18658 -1.263489,3.40392 -0.580798,0.14579 -0.636595,0.30183 -0.681095,1.91875 -0.02664,0.9682 -0.152063,1.95483 -0.279053,2.19211 -0.146688,0.2741 -0.09828,0.67083 0.132809,1.08831 0.20006,0.36141 0.368104,1.29286 0.373104,2.06964 l 0.0088,1.41232 -1.12448,-0.18294 c -1.338186,-0.21751 -1.75585,-0.52876 -1.30948,-0.97513 0.385938,-0.38597 0.422494,-0.83694 0.04909,-0.60617 -0.512218,0.31657 -1.326043,2.24453 -1.702221,4.03283 -0.51936,2.46894 -0.848235,3.24115 -1.380795,3.24115 -0.401328,0 -0.394582,0.0437 0.05943,0.38034 0.42011,0.31146 0.458133,0.47188 0.208773,0.88108 -0.16767,0.27514 -0.38887,1.28785 -0.49196,2.25051 -0.128998,1.20456 -0.343268,1.89162 -0.687296,2.20296 -0.35561,0.32183 -0.500228,0.81292 -0.500228,1.70119 0,1.05807 -0.141338,1.40261 -0.926042,2.2593 -1.179018,1.28716 -1.221851,1.96628 -0.124023,1.96628 0.972142,0 1.225181,0.51221 0.852661,1.726 -0.24862,0.81008 -0.205082,0.94498 0.508496,1.58078 0.42913,0.38236 0.733761,0.83653 0.676961,1.00924 -0.178288,0.54167 -1.212264,0.50441 -1.824178,-0.0656 -0.642568,-0.59866 -0.955089,-0.66036 -1.522387,-0.30127 -0.31916,0.20205 -0.304428,0.45912 0.09973,1.74408 0.34986,1.11247 0.437227,2.00162 0.334347,3.39669 -0.07666,1.03946 -0.0146,2.51926 0.137459,3.28817 0.24669,1.24746 0.222855,1.43665 -0.218075,1.75907 -0.432908,0.31653 -0.450714,0.44189 -0.146244,1.01079 0.19116,0.35715 0.319237,0.99446 0.284737,1.41593 -0.03446,0.42146 0.07352,1.10136 0.240296,1.51102 0.166788,0.40965 0.30334,0.90739 0.30334,1.10639 0,0.19901 0.227279,0.43383 0.504879,0.52193 0.590992,0.18758 0.912515,0.84467 0.529167,1.08159 -0.2824,0.17453 0.47011,0.96761 1.851566,1.9513 0.45035,0.32068 0.818555,0.75333 0.818555,0.9617 0,0.20838 0.178595,0.39366 0.396875,0.41186 0.21829,0.0182 0.545704,0.0512 0.727604,0.0729 0.18187,0.0217 0.306034,0.27471 0.275436,0.56224 -0.10455,0.98374 3.020183,6.74015 3.658691,6.74015 0.11336,0 0.509783,0.2817 0.881083,0.62581 0.47537,0.44054 0.674894,0.89927 0.674894,1.54977 0,0.86342 0.951978,2.43759 2.366264,3.91294 0.22646,0.23625 0.796651,0.98718 1.266589,1.66863 0.8222,1.19223 1.672067,1.59484 2.055674,0.9741 0.28748,-0.46515 0.884454,-0.28369 1.078484,0.32763 0.17526,0.55221 0.771857,1.36897 2.559525,3.50366 0.40018,0.47787 0.727597,1.12916 0.727597,1.44694 0,0.85805 0.462827,1.56829 1.387501,2.13062 0.453367,0.27571 0.922367,0.44122 1.041794,0.36742 0.683427,-0.42239 -0.267807,-3.63178 -1.294491,-4.36769 -0.698797,-0.5009 -1.438214,-2.07336 -1.251594,-2.66134 0.0988,-0.31144 0.0206,-0.48214 -0.220657,-0.48214 -0.20554,0 -0.579147,-0.22674 -0.829917,-0.50384 -0.379887,-0.41978 -0.400517,-0.59265 -0.12454,-1.03456 0.28874,-0.46235 0.2232,-0.65355 -0.511077,-1.48984 -0.499447,-0.56882 -0.844454,-1.25145 -0.846454,-1.67741 -0.002,-0.39512 -0.2953,-1.65727 -0.651637,-2.80448 -0.440727,-1.41902 -0.570757,-2.22971 -0.406687,-2.53628 0.15465,-0.28897 0.10742,-0.9646 -0.13178,-1.88309 -0.466687,-1.79199 -0.821204,-5.41022 -0.764804,-7.80728 0.198617,-8.44463 0.440737,-11.08975 1.192681,-13.01781 0.13037,-0.33427 0.2372,-1.24562 0.2372,-2.02468 0,-0.77905 0.232597,-2.77633 0.516757,-4.43849 0.284157,-1.66217 0.453937,-3.26163 0.377237,-3.55482 -0.0767,-0.29319 0.10745,-0.97311 0.409277,-1.5105 0.30183,-0.53739 0.548797,-1.3523 0.548797,-1.81126 0,-0.77233 0.913867,-3.07937 1.339964,-3.38274 0.1022,-0.0728 0.331777,-0.84666 0.510047,-1.71979 0.17827,-0.87312 0.405477,-1.70656 0.504877,-1.85208 0.0994,-0.14552 0.338087,-0.74083 0.530707,-1.32292 0.19262,-0.58208 0.509747,-1.41554 0.704867,-1.85208 0.534857,-1.19672 2.247795,-6.2221 2.479935,-7.27605 0.1863,-0.84581 5.985717,-12.57543 6.580954,-13.31029 0.140667,-0.17366 0.436947,-0.85152 0.658874,-1.50637 0.38463,-1.1349 1.746644,-4.025734 3.027194,-6.425952 0.32709,-0.613074 1.28567,-2.424345 2.13062,-4.025046 3.2941,-6.240464 4.08264,-7.687135 4.39767,-8.069755 0.17972,-0.218277 0.65217,-1.111234 1.05006,-1.984358 0.39789,-0.873114 0.83459,-1.766091 0.96997,-1.984368 0.13538,-0.21828 0.69303,-1.208134 1.23972,-2.199338 0.5467,-0.991212 1.50922,-2.598555 2.13888,-3.571873 0.62967,-0.973318 1.92814,-3.079092 2.8851,-4.679818 0.95695,-1.600726 1.89067,-3.089012 2.07533,-3.307292 0.18466,-0.218278 0.41738,-0.724409 0.51728,-1.124479 0.0998,-0.400058 0.47197,-0.995378 0.82682,-1.322916 0.35485,-0.32754 0.89318,-1.071558 1.19631,-1.653646 0.30312,-0.58208 1.01189,-1.56191 1.5751,-2.177128 0.97059,-1.060168 1.16551,-1.643891 1.03973,-3.114539 -0.094,-1.099078 -0.91958,-3.225052 -1.77457,-4.56923 -0.48773,-0.766808 -0.88677,-1.442284 -0.88677,-1.500684 0,-0.306278 -3.10305,-5.457565 -3.83439,-6.365503 -0.46887,-0.582078 -0.93265,-1.31335 -1.03095,-1.624707 -0.20487,-0.648832 -1.20433,-0.930317 -1.92236,-0.541569 -0.26853,0.145388 -0.94615,0.67262 -1.50585,1.171505 -0.77231,0.68838 -1.17052,0.868498 -1.65158,0.747758 -0.47123,-0.11827 -0.78237,0.01185 -1.21285,0.506946 -0.73507,0.845438 -1.19988,0.83956 -2.10478,-0.02739 l -0.72398,-0.694014 -1.25057,1.358056 c -1.17992,1.280898 -1.27847,1.333468 -1.73323,0.921908 -0.71869,-0.650398 -1.38525,-0.02239 -1.19838,1.12913 0.16455,1.013948 -0.41506,1.739808 -0.76791,0.961698 -0.11716,-0.258378 -0.22044,-0.697461 -0.22944,-0.975651 -0.0247,-0.767348 -0.67748,-0.850506 -0.67748,-0.0863 0,0.850698 -0.78365,1.540464 -1.52859,1.345654 -0.446067,-0.11665 -0.637564,-0.0058 -0.815444,0.472839 -0.12789,0.34401 -0.18039,0.762481 -0.11679,0.929659 0.14992,0.39431 -0.361707,0.713794 -0.579287,0.361736 -0.315617,-0.51068 -0.928624,-0.278749 -0.928624,0.351399 0,0.960208 -0.874924,1.595487 -1.955938,1.420069 -0.689277,-0.11186 -1.020904,-0.02447 -1.369944,0.361218 -0.253257,0.27988 -0.623347,0.509013 -0.822674,0.509013 -0.19933,0 -0.468467,0.278137 -0.597897,0.618567 -0.19536,0.513848 -0.378567,0.59801 -1.080034,0.49506 -0.819567,-0.12029 -0.840044,-0.0998 -0.670237,0.673344 0.15879,0.722928 0.0956,0.8246 -0.681607,1.09554 -0.471327,0.1643 -1.061384,0.483598 -1.311021,0.709518 -0.413017,0.373788 -0.501257,0.359753 -0.981334,-0.155547 -0.629107,-0.675288 -0.959194,-0.324061 -0.595307,0.633037 0.300797,0.791168 -0.17538,1.294724 -0.565337,0.597896 -0.13359,-0.23871 -0.484417,-0.434082 -0.779797,-0.434082 -0.450997,0 -0.510797,0.119056 -0.373617,0.743624 0.11858,0.539908 0.0264,0.867319 -0.335377,1.194759 -0.470917,0.42613 -0.535437,0.421364 -1.178214,-0.08423 -0.526667,-0.414278 -0.825034,-0.480153 -1.321361,-0.291455 -0.531197,0.20194 -0.620707,0.383931 -0.521407,1.060401 0.141787,0.966108 0.098,0.977008 -1.091921,0.274918 -1.431282,-0.844478 -1.538497,-1.758026 -0.273885,-2.334224 0.363999,-0.16585 0.599799,-0.401876 0.523999,-0.524516 -0.0758,-0.12263 0.215,-0.560704 0.645947,-0.973584 0.430947,-0.412868 1.167684,-1.515815 1.637621,-2.451013 0.521257,-1.037348 1.088294,-1.789456 1.454161,-1.928564 0.411697,-0.15653 0.579567,-0.413389 0.535367,-0.819589 -0.0445,-0.409288 0.0991,-0.625299 0.465087,-0.699699 0.673927,-0.137028 0.916904,-0.518759 0.921904,-1.449007 0.003,-0.585858 0.17202,-0.800256 0.805627,-1.021126 0.989404,-0.34491 1.712241,-1.596231 1.332211,-2.306319 -0.334087,-0.62425 -0.0562,-0.922872 0.45992,-0.494544 0.321217,0.26659 0.447187,0.231331 0.685744,-0.190169 0.16074,-0.28401 0.619897,-0.815465 1.020084,-1.181323 0.40018,-0.365847 0.727597,-0.750594 0.727597,-0.854728 0,-0.104134 0.357187,-0.580359 0.793744,-1.058334 0.43656,-0.477973 0.793747,-0.963669 0.793747,-1.07952 0,-0.115852 0.609377,-0.85365 1.353921,-1.639177 0.744547,-0.785527 1.488674,-1.660472 1.653631,-1.944584 0.16495,-0.284113 0.514297,-0.895787 0.776697,-1.35909 0.262397,-0.463304 0.713384,-1.078232 1.001994,-1.366842 0.288627,-0.288608 0.450787,-0.644579 0.360187,-0.791166 -0.219987,-0.355951 0.32198,-0.975566 1.511524,-1.72651 0.70824,-0.447091 1.23954,-1.147489 1.92909,-2.543514 l 0.95188,-1.926497 -0.43047,-1.261938 c -0.23672,-0.693916 -0.64121,-1.374273 -0.89865,-1.512053 -0.31825,-0.170323 -0.50826,-0.669771 -0.59376,-1.560111 -0.0983,-1.022702 -0.29425,-1.45851 -0.89452,-1.989543 -0.765397,-0.677113 -0.765947,-0.68044 -0.17312,-0.846977 0.66317,-0.186297 0.79892,-1.082508 0.30438,-2.006596 -0.22492,-0.420268 -0.18665,-0.773543 0.16898,-1.562178 0.38463,-0.85296 0.41144,-1.203484 0.16329,-2.15129 -0.16306,-0.622824 -0.29393,-1.429887 -0.29093,-1.793689 0.0106,-1.305712 -0.34033,-2.645833 -0.69247,-2.645833 -0.195127,0 -0.452557,-0.175708 -0.572567,-0.390157 -0.0807,-0.144257 -0.186857,-0.227852 -0.345197,-0.256315 z m -26.149727,188.720145 -5.966045,0.0884 c -5.961328,0.0883 -5.96595,0.0889 -6.6151,0.74983 -0.368858,0.37557 -2.258233,4.39519 -4.371309,9.29969 -3.940234,9.14537 -4.284774,10.33477 -3.126424,10.80037 0.327418,0.1316 2.926777,0.24732 5.776391,0.25632 l 5.18108,0.0165 0.28422,-0.92604 0.28422,-0.92604 h -3.54707 c -3.468104,0 -3.54707,-0.0129 -3.54707,-0.57671 0,-0.56318 6.687219,-16.16462 7.209379,-16.81964 0.18811,-0.23593 1.313979,-0.33073 3.928959,-0.33073 h 3.664892 l 0.42168,-0.81597 z m 40.816521,0.0444 -4.44934,10.2526 c -2.44706,5.63893 -4.50766,10.40142 -4.57956,10.58333 -0.0987,0.24982 0.45231,0.33073 2.25257,0.33073 2.36199,0 2.38625,-0.007 2.63964,-0.7276 0.14065,-0.40018 2.11678,-5.0925 4.39146,-10.42779 2.27468,-5.33528 4.13566,-9.77033 4.13566,-9.85573 0,-0.0854 -0.98782,-0.15554 -2.19521,-0.15554 z m 6.82904,0 -0.18241,0.7276 c -0.10044,0.40018 -0.20288,0.77071 -0.22738,0.82321 -0.0245,0.0525 1.50337,0.0808 3.39514,0.063 1.89178,-0.0178 3.5829,0.0621 3.75791,0.17725 0.31254,0.20562 -1.38865,2.12273 -11.89385,13.40539 -4.08198,4.38407 -4.5536,5.19636 -3.30729,5.69732 0.32742,0.1316 3.30101,0.2468 6.60787,0.2558 l 6.01255,0.017 0.40359,-0.78083 c 0.22202,-0.42933 0.4036,-0.84604 0.4036,-0.92604 0,-0.08 -1.90501,-0.14521 -4.23334,-0.14521 -2.32832,0 -4.23333,-0.10511 -4.23333,-0.23358 0,-0.12848 3.57188,-4.12139 7.9375,-8.87284 4.36563,-4.75146 7.9375,-8.8299 7.9375,-9.06353 0,-1.00455 -0.71932,-1.12736 -6.65179,-1.13636 z m -62.484966,5.1e-4 -4.968172,0.006 c -5.51224,0.007 -6.735866,0.1864 -7.674984,1.12552 -0.639308,0.63931 -8.008296,17.78858 -8.008296,18.6371 0,0.23647 0.197381,0.64752 0.438216,0.91364 v 5.2e-4 c 0.396152,0.43775 0.937163,0.48369 5.681307,0.48369 h 5.244124 l 0.410311,-0.79375 0.410828,-0.79375 h -1.422136 c -2.625014,0 -5.515919,-0.33849 -5.639449,-0.66042 -0.06632,-0.17283 0.621938,-1.99995 1.529106,-4.06022 l 1.648995,-3.74603 h 2.950724 c 2.890544,0 2.956758,-0.0135 3.251998,-0.66145 l 0.301273,-0.66146 h -2.904732 c -1.693956,0 -2.904732,-0.1066 -2.904732,-0.2558 0,-0.47217 2.944413,-7.01478 3.367753,-7.48327 0.35861,-0.39682 0.921919,-0.46302 3.942395,-0.46302 h 3.524333 l 0.410311,-0.79375 z m 34.421608,0 -2.070148,0.009 c -2.248308,0.0102 -2.848122,0.23493 -3.857616,1.44591 -0.537087,0.64426 -11.285439,16.32238 -13.014685,18.98385 l -0.47284,0.72812 2.213302,-0.0145 2.213302,-0.0145 2.859773,-4.35115 2.859766,-4.35116 h 1.990048 1.990048 l -0.148307,0.7276 c -0.20329,0.99905 -0.687817,6.00426 -0.687817,7.10551 v 0.89814 h 2.199338 2.198818 l 0.328667,-4.29948 c 0.18087,-2.36472 0.492787,-6.02589 0.692977,-8.13594 0.200177,-2.11003 0.440947,-4.93778 0.534847,-6.28385 z m 50.164858,0.047 c -6.33583,0.0957 -6.38266,0.1087 -7.44244,2.05982 -1.27708,2.35122 -7.30808,16.80437 -7.30808,17.51366 0,0.44625 0.22466,0.87924 0.58807,1.13378 0.48284,0.33817 1.50058,0.41186 5.68803,0.41186 h 5.09943 l 0.3514,-0.85989 0.3514,-0.8599 -3.40444,-0.0739 c -2.65629,-0.0577 -3.43649,-0.15675 -3.54966,-0.45165 -0.0798,-0.20789 0.59304,-2.04986 1.495,-4.09329 l 1.63969,-3.71553 h 2.85151 c 2.74972,0 2.86715,-0.0236 3.28507,-0.66146 l 0.43357,-0.66146 h -2.91662 c -2.15697,0 -2.9163,-0.0861 -2.9161,-0.33073 5.2e-4,-0.64893 2.86962,-6.88982 3.42098,-7.44141 0.50478,-0.50496 0.91642,-0.57147 4.06021,-0.65577 3.44895,-0.0924 3.88124,-0.20916 3.89124,-1.04955 0.003,-0.28148 -1.09088,-0.33298 -5.61826,-0.26458 z m -64.907047,0.008 -2.332157,0.0765 -4.447274,10.30118 c -2.445994,5.66562 -4.447274,10.39836 -4.447274,10.51719 0,0.11884 1.071574,0.21601 2.38125,0.21601 1.486418,0 2.38125,-0.10412 2.38125,-0.27751 0,-0.15276 1.919407,-4.76646 4.265373,-10.2526 2.345966,-5.48615 4.325181,-10.12834 4.398181,-10.31617 0.10354,-0.26658 -0.379143,-0.32458 -2.199349,-0.26458 z m 25.382837,0 -2.28409,0.0765 -4.053482,9.39271 c -2.229388,5.16598 -4.058876,9.7134 -4.065876,10.10533 -0.008,0.44628 0.207397,0.86653 0.575667,1.12448 0.474927,0.33267 1.433361,0.41186 4.98261,0.41186 h 4.394561 l 0.28163,-0.91674 0.28164,-0.91726 -2.68459,-0.0749 c -2.454568,-0.0687 -2.690628,-0.12077 -2.756928,-0.60461 -0.0399,-0.29104 1.656781,-4.55634 3.770298,-9.4785 2.11354,-4.92214 3.84266,-9.00471 3.84266,-9.07231 0,-0.0676 -1.02781,-0.0885 -2.2841,-0.0465 z m 53.73264,0.006 -6.04511,0.0708 -4.44314,10.31875 c -2.44368,5.67529 -4.4442,10.37824 -4.4452,10.45104 -0.001,0.0728 2.90561,0.13229 6.46007,0.13229 6.13587,0 6.50006,-0.0276 7.20111,-0.55087 0.56882,-0.42457 1.58468,-2.49056 4.4235,-8.99583 2.02683,-4.64458 3.73762,-8.92341 3.80132,-9.50847 0.0887,-0.81467 -0.004,-1.17215 -0.39584,-1.52652 -0.46056,-0.41678 -1.11099,-0.45539 -6.55671,-0.39119 z m -129.765098,0.0847 c 0,-0.0513 -2.70868,-0.0325 -6.019271,0.0419 -5.6968,0.12798 -6.049877,0.1658 -6.597014,0.70125 -0.743171,0.72731 -2.732567,5.26418 -2.718697,6.20014 0.0083,0.56247 0.520279,1.16794 2.391586,2.82825 1.309663,1.16199 2.449748,2.38472 2.533178,2.71714 0.166126,0.6619 -0.07701,1.37627 -1.416451,4.16616 -1.329977,2.7698 -1.345429,2.77767 -5.5991407,2.77967 l -3.6085629,0.002 -0.450619,0.7922 -0.4506177,0.79168 H 11.17295 c 6.248056,0 6.876558,-0.11317 7.713224,-1.39009 0.656328,-1.00168 2.516249,-5.53108 2.720247,-6.62389 0.185907,-0.99589 0.171174,-1.01736 -2.398303,-3.48454 -2.949131,-2.83172 -3.031314,-3.07735 -1.831929,-5.47357 1.318527,-2.63424 1.261148,-2.60707 5.549015,-2.60707 h 3.748092 l 0.306958,-0.67386 c 0.168877,-0.37065 0.306958,-0.7161 0.306958,-0.7674 z m 8.413956,0.0491 c -3.430533,-0.0392 -5.576891,0.0373 -5.744869,0.20516 -0.20502,0.20491 -6.451924,14.14285 -8.921936,19.90628 l -0.368969,0.85989 h 2.220019 2.22002 l 1.532723,-3.44423 c 0.842767,-1.89432 1.666345,-3.55565 1.830379,-3.69176 0.164033,-0.13614 2.078896,-0.50177 4.255037,-0.81288 4.046319,-0.57847 4.835248,-0.85432 5.544882,-1.93734 0.782237,-1.19384 3.82984,-8.50963 3.83284,-9.20048 0.0016,-0.38406 -0.205777,-0.95131 -0.460437,-1.26038 -0.441518,-0.53583 -0.717366,-0.56456 -5.939689,-0.62426 z m -1.95957,1.36995 1.601453,0.0775 c 1.400868,0.0677 1.611501,0.14732 1.681551,0.6382 0.09567,0.67048 -2.319667,6.67204 -3.252515,8.08168 -0.469438,0.70937 -0.940838,1.06313 -1.652612,1.24075 -1.603631,0.40056 -2.643258,0.5519 -2.78846,0.4067 -0.07443,-0.0744 0.02214,-0.45553 0.214457,-0.84698 0.192315,-0.39144 0.963487,-2.14085 1.71359,-3.8871 0.750103,-1.74625 1.615662,-3.7452 1.923397,-4.44262 z m 123.097812,0.014 c 0.8875,0.0159 1.79136,0.15683 2.04535,0.41083 0.34691,0.34691 0.35364,0.53777 0.0491,1.38906 -0.81309,2.27276 -6.51905,14.99022 -6.92877,15.44298 -0.36366,0.40189 -0.8337,0.493 -2.54972,0.493 -1.57824,0 -2.07041,-0.0826 -1.96991,-0.33073 1.12969,-2.78883 7.22082,-16.82311 7.40679,-17.06563 0.18869,-0.24609 1.05965,-0.35539 1.94717,-0.33951 z m -69.056698,4.50618 c 0.152537,0 -0.13316,3.81688 -0.34158,4.56407 -0.0982,0.35191 -0.410367,0.46302 -1.301721,0.46302 -0.645037,0 -1.173054,-0.10794 -1.173054,-0.23978 0,-0.31121 2.633295,-4.78731 2.816355,-4.78731 z" /><path
       style="fill:#ff0000;stroke:#000000;stroke-width:0.2;stroke-dasharray:none"
       d="m 160.53292,221.46873 c -0.97091,-0.0684 -1.77664,-0.60402 -2.08012,-1.38256 -0.22182,-0.56904 -0.17841,-1.20367 0.11802,-1.72541 0.61743,-1.08674 2.26112,-1.4816 3.50351,-0.84166 0.58974,0.30378 0.98709,0.81449 1.11848,1.43757 0.0394,0.18683 0.0394,0.58866 0,0.77549 -0.18023,0.8547 -0.84533,1.47413 -1.80413,1.68025 -0.16355,0.0352 -0.54596,0.0757 -0.65673,0.0697 -0.0203,-0.002 -0.10993,-0.007 -0.19903,-0.0135 z m 0.48233,-0.37386 c 0.73649,-0.0769 1.32398,-0.49962 1.56449,-1.12576 0.0844,-0.21989 0.10413,-0.3379 0.10413,-0.62469 0,-0.20115 -0.008,-0.29489 -0.0303,-0.38595 -0.1154,-0.45919 -0.36172,-0.80897 -0.74426,-1.05688 -0.6218,-0.40298 -1.51105,-0.42799 -2.17182,-0.0611 -0.56248,0.31231 -0.889,0.8656 -0.88861,1.50577 7.2e-4,1.10863 0.95074,1.87551 2.16631,1.74862 z m -1.18857,-1.70737 v -1.17759 h 0.64979 c 0.72114,0 0.81512,0.008 1.02434,0.0896 0.14559,0.0566 0.27909,0.17452 0.33298,0.29407 0.0451,0.10005 0.0639,0.34658 0.0351,0.46076 -0.0595,0.2362 -0.26558,0.39965 -0.57031,0.45228 -0.0573,0.01 -0.10863,0.0217 -0.11382,0.026 -0.005,0.004 0.16126,0.2362 0.3699,0.51505 0.20865,0.27885 0.37937,0.5095 0.37937,0.51255 0,0.003 -0.11525,0.003 -0.25611,0.002 l -0.25612,-0.004 -0.35376,-0.49903 -0.35376,-0.49904 h -0.21622 -0.21623 v 0.50263 0.50262 h -0.2276 -0.22759 z m 1.197,-0.17261 c 0.0773,-0.008 0.16246,-0.0292 0.21917,-0.0534 0.078,-0.0334 0.1001,-0.052 0.13909,-0.11763 0.0806,-0.13549 0.0577,-0.32367 -0.0495,-0.40615 -0.0176,-0.0135 -0.0696,-0.0393 -0.11559,-0.0574 -0.0789,-0.031 -0.10767,-0.0331 -0.50937,-0.0375 l -0.4257,-0.005 v 0.34575 0.34576 l 0.30768,-3.3e-4 c 0.16922,-3.3e-4 0.36458,-0.006 0.43412,-0.0142 z"
       id="path1-7" /></g></svg>
