<?xml version="1.0" encoding="UTF-8" standalone="no"?>
<!-- Created with Inkscape (http://www.inkscape.org/) -->

<svg
   width="170mm"
   height="230mm"
   viewBox="0 0 170 230"
   version="1.1"
   id="svg1"
   xml:space="preserve"
   inkscape:version="1.3.2 (091e20e, 2023-11-25, custom)"
   sodipodi:docname="specilized-logo-red.svg"
   xmlns:inkscape="http://www.inkscape.org/namespaces/inkscape"
   xmlns:sodipodi="http://sodipodi.sourceforge.net/DTD/sodipodi-0.dtd"
   xmlns="http://www.w3.org/2000/svg"
   xmlns:svg="http://www.w3.org/2000/svg"><sodipodi:namedview
     id="namedview1"
     pagecolor="#ffffff"
     bordercolor="#000000"
     borderopacity="0.25"
     inkscape:showpageshadow="2"
     inkscape:pageopacity="0.0"
     inkscape:pagecheckerboard="0"
     inkscape:deskcolor="#d1d1d1"
     inkscape:document-units="mm"
     inkscape:zoom="0.72942346"
     inkscape:cx="410.59826"
     inkscape:cy="723.17389"
     inkscape:window-width="1440"
     inkscape:window-height="837"
     inkscape:window-x="1352"
     inkscape:window-y="-8"
     inkscape:window-maximized="1"
     inkscape:current-layer="layer2" /><defs
     id="defs1" /><g
     inkscape:label="Camada 1"
     inkscape:groupmode="layer"
     id="layer1"><path
       id="path11"
       style="fill:#ff0000;stroke:#ffffff"
       d="M 35.70118 199.28706 C 32.27065 199.24786 30.124289 199.32436 29.956311 199.49222 C 29.751291 199.69713 23.504385 213.63507 21.034375 219.39849 L 20.665405 220.25839 L 22.885425 220.25839 L 25.105444 220.25839 L 26.638167 216.81416 C 27.480933 214.91984 28.304513 213.2585 28.468547 213.12239 C 28.632579 212.98625 30.547445 212.62063 32.723584 212.30952 C 36.769899 211.73105 37.558832 211.45519 38.268465 210.37217 C 39.050701 209.17833 42.098306 201.86255 42.101306 201.1717 C 42.102906 200.78764 41.895529 200.22038 41.640869 199.91131 C 41.199352 199.37548 40.923498 199.34676 35.70118 199.28706 z M 33.74161 200.657 L 35.343062 200.73452 C 36.743929 200.80222 36.954564 200.88184 37.024613 201.37272 C 37.120283 202.0432 34.704946 208.04476 33.772099 209.4544 C 33.302661 210.16377 32.83126 210.51753 32.119486 210.69515 C 30.515857 211.09571 29.476228 211.24704 29.331026 211.10184 C 29.256596 211.02744 29.353167 210.64632 29.545483 210.25487 C 29.737798 209.86343 30.508972 208.11401 31.259074 206.36777 C 32.009176 204.62152 32.874736 202.62256 33.182471 201.92514 L 33.74161 200.657 z " /><path
       id="path10"
       style="fill:#ff0000;stroke:#ffffff"
       d="M 27.287223 199.23797 C 27.287223 199.18667 24.57854 199.20543 21.267952 199.27983 C 15.571158 199.40781 15.218076 199.44563 14.670939 199.98108 C 13.927769 200.70838 11.938372 205.24525 11.952242 206.18121 C 11.960542 206.74368 12.472522 207.34916 14.343827 209.00946 C 15.653489 210.17145 16.793576 211.39419 16.877006 211.72661 C 17.043132 212.38851 16.799995 213.10288 15.460555 215.89277 C 14.130579 218.66256 14.115121 218.67044 9.8614136 218.67244 L 6.2528483 218.67451 L 5.8022298 219.46671 L 5.3516113 220.25839 L 11.172961 220.25839 C 17.421011 220.25839 18.049521 220.14521 18.886186 218.86829 C 19.542513 217.86662 21.402435 213.33722 21.606433 212.24441 C 21.79234 211.24852 21.777604 211.22704 19.20813 208.75987 C 16.259002 205.92815 16.176817 205.68252 17.3762 203.2863 C 18.694726 200.65206 18.637353 200.67922 22.925216 200.67922 L 26.673307 200.67922 L 26.980265 200.00536 C 27.149142 199.63471 27.287223 199.28927 27.287223 199.23797 z " /><path
       id="path9"
       style="fill:#ff0000;stroke:#ffffff"
       d="M 103.31979 199.14702 L 101.03569 199.2235 L 96.982194 208.61621 C 94.752808 213.78218 92.923292 218.3296 92.916292 218.72153 C 92.908292 219.16781 93.123698 219.58806 93.491968 219.84601 C 93.966894 220.17868 94.925364 220.25787 98.474609 220.25787 L 102.86917 220.25787 L 103.15081 219.34113 L 103.43245 218.42388 L 100.74786 218.34895 C 98.29329 218.28025 98.057218 218.22817 97.990918 217.74433 C 97.951018 217.45329 99.647716 213.188 101.76123 208.26584 C 103.87477 203.34371 105.60389 199.26113 105.60389 199.19353 C 105.60389 199.12593 104.57608 199.10502 103.31979 199.14702 z " /><path
       id="path8"
       style="fill:#ff0000;stroke:#ffffff"
       d="M 77.936845 199.14702 L 75.604687 199.2235 L 71.157414 209.52468 C 68.711422 215.19029 66.71014 219.92304 66.71014 220.04187 C 66.71014 220.16071 67.781715 220.25787 69.09139 220.25787 C 70.577806 220.25787 71.47264 220.15376 71.47264 219.98037 C 71.47264 219.82761 73.392049 215.2139 75.738013 209.72777 C 78.083976 204.24162 80.063194 199.59943 80.136194 199.4116 C 80.239734 199.14502 79.757049 199.08702 77.936845 199.14702 z " /><path
       id="path7"
       style="fill:#ff0000;stroke:#ffffff"
       d="m 142.84399,199.13927 c -6.33582,0.0957 -6.38266,0.1087 -7.44244,2.05982 -1.27707,2.35122 -7.30808,16.80437 -7.30808,17.51366 0,0.44625 0.22467,0.87924 0.58808,1.13378 0.48284,0.33817 1.50058,0.41186 5.68803,0.41186 h 5.09943 l 0.3514,-0.8599 0.3514,-0.85989 -3.40445,-0.0739 c -2.65628,-0.0577 -3.43648,-0.15675 -3.54965,-0.45165 -0.0798,-0.20789 0.59304,-2.04986 1.495,-4.09329 l 1.63969,-3.71554 h 2.85151 c 2.74971,0 2.86715,-0.0236 3.28507,-0.66145 l 0.43356,-0.66146 h -2.91662 c -2.15696,0 -2.9163,-0.0861 -2.9161,-0.33073 5.2e-4,-0.64893 2.86962,-6.88982 3.42098,-7.44141 0.50478,-0.50496 0.91643,-0.57147 4.06022,-0.65577 3.44895,-0.0924 3.88124,-0.20916 3.89124,-1.04955 0.003,-0.28148 -1.09089,-0.33298 -5.61827,-0.26458 z m 14.20844,0.014 -6.04511,0.0708 -4.44314,10.31875 c -2.44368,5.67528 -4.44421,10.37824 -4.44521,10.45104 -10e-4,0.0728 2.90562,0.13229 6.46007,0.13229 6.13587,0 6.50007,-0.0276 7.20112,-0.55087 0.56881,-0.42457 1.58468,-2.49057 4.4235,-8.99584 2.02683,-4.64457 3.73762,-8.9234 3.80132,-9.50846 0.0887,-0.81467 -0.004,-1.17215 -0.39585,-1.52652 -0.46055,-0.41678 -1.11099,-0.45539 -6.5567,-0.39119 z" /><path
       id="path6"
       style="fill:#ff0000;stroke:#ffffff"
       d="M 92.679097 199.09224 L 90.60894 199.10103 C 88.360634 199.11123 87.760787 199.33595 86.751294 200.54693 C 86.214207 201.19119 75.465829 216.86932 73.736584 219.53079 L 73.263745 220.25891 L 75.477047 220.24444 L 77.690348 220.22997 L 80.550122 215.87881 L 83.409896 211.52766 L 85.399955 211.52766 L 87.390015 211.52766 L 87.241703 212.25526 C 87.038413 213.25431 86.55389 218.25952 86.55389 219.36077 L 86.55389 220.25891 L 88.753239 220.25891 L 90.952071 220.25891 L 91.280733 215.95943 C 91.461603 213.59471 91.773524 209.93354 91.973714 207.82349 C 92.173891 205.71346 92.414665 202.8857 92.508565 201.53964 L 92.679097 199.09224 z M 87.782756 205.17714 C 87.935292 205.17714 87.649594 208.99401 87.441174 209.7412 C 87.342974 210.09311 87.030798 210.20422 86.139445 210.20422 C 85.494409 210.20422 84.96639 210.09628 84.96639 209.96444 C 84.96639 209.65324 87.599696 205.17714 87.782756 205.17714 z " /><path
       id="path5"
       style="fill:#ff0000;stroke:#ffffff"
       d="M 58.257426 199.09224 L 53.289254 199.09792 C 47.777019 199.10492 46.553387 199.28432 45.61427 200.22344 C 44.974963 200.86275 37.605973 218.01202 37.605973 218.86054 C 37.605973 219.09701 37.803355 219.50806 38.044189 219.77418 L 38.044189 219.7747 C 38.440341 220.21245 38.981357 220.25839 43.725496 220.25839 L 48.969621 220.25839 L 49.379932 219.46464 L 49.790759 218.67089 L 48.368624 218.67089 C 45.743612 218.67089 42.852705 218.3324 42.729175 218.01047 C 42.662855 217.83764 43.351113 216.01052 44.25828 213.95025 L 45.907275 210.20422 L 48.858 210.20422 C 51.748541 210.20422 51.814758 210.19071 52.109998 209.54277 L 52.411271 208.88131 L 49.506539 208.88131 C 47.812585 208.88131 46.601807 208.77471 46.601807 208.62551 C 46.601807 208.15334 49.54622 201.61073 49.96956 201.14224 C 50.328169 200.74542 50.891482 200.67922 53.911955 200.67922 L 57.436287 200.67922 L 57.846598 199.88547 L 58.257426 199.09224 z " /><path
       id="path4"
       style="fill:#ff0000;stroke:#ffffff"
       d="M 113.91346 199.09172 L 109.46412 209.34433 C 107.01706 214.98325 104.95645 219.74575 104.88455 219.92766 C 104.78585 220.17748 105.33687 220.25839 107.13713 220.25839 C 109.49912 220.25839 109.52337 220.25139 109.77676 219.53079 C 109.91741 219.13061 111.89355 214.43828 114.16823 209.103 C 116.4429 203.76772 118.30389 199.33267 118.30389 199.24727 C 118.30389 199.16187 117.31606 199.09172 116.10868 199.09172 L 113.91346 199.09172 z M 120.7425 199.09172 L 120.56008 199.81933 C 120.45964 200.21951 120.35721 200.59003 120.33271 200.64253 C 120.30821 200.69503 121.83608 200.72338 123.72785 200.70558 C 125.61963 200.68778 127.31075 200.76768 127.48576 200.88283 C 127.7983 201.08845 126.0971 203.00556 115.59191 214.28821 C 111.50993 218.67228 111.03831 219.48458 112.28462 219.98554 C 112.61204 220.11714 115.58563 220.23234 118.89248 220.24134 L 124.90504 220.25787 L 125.30863 219.47704 C 125.53065 219.04771 125.71222 218.631 125.71222 218.551 C 125.71222 218.471 123.80722 218.40579 121.47889 218.40579 C 119.15057 218.40579 117.24556 218.30068 117.24556 218.17221 C 117.24556 218.04373 120.81744 214.05081 125.18306 209.29937 C 129.54868 204.54791 133.12056 200.46947 133.12056 200.23584 C 133.12056 199.23129 132.40123 199.10848 126.46877 199.09948 L 120.7425 199.09172 z " /><path
       id="path3"
       style="fill:#ff0000;stroke:#ffffff"
       d="M 73.09683 199.04728 L 67.130786 199.13565 C 61.169464 199.22395 61.164835 199.22454 60.515686 199.88547 C 60.146828 200.26104 58.257451 204.28067 56.144377 209.18516 C 52.204147 218.33053 51.859604 219.51994 53.017952 219.98554 C 53.34537 220.11714 55.944733 220.23285 58.794344 220.24185 L 63.975423 220.25839 L 64.259644 219.33235 L 64.543864 218.40631 L 60.996794 218.40631 C 57.528693 218.40631 57.449723 218.39341 57.449723 217.8296 C 57.449723 217.26642 64.136943 201.66497 64.659102 201.00995 C 64.847212 200.77402 65.973084 200.67922 68.588062 200.67922 L 72.252954 200.67922 L 72.674634 199.86325 L 73.09683 199.04728 z " /><path
       id="path2"
       style="fill:#ff0000;stroke:#000000"
       d="M 99.246655 10.327018 C 99.088305 10.298558 98.87745 10.325016 98.58623 10.402466 C 97.864317 10.594331 97.792233 10.720053 97.717033 11.917102 C 97.671933 12.634957 97.523094 13.335352 97.386304 13.473596 C 97.229597 13.631959 97.13774 13.607488 97.13774 13.40745 C 97.13774 12.794991 96.657471 13.09777 96.383781 13.882874 C 96.231734 14.319042 95.816356 14.808677 95.46084 14.970662 C 94.688627 15.322508 94.205631 16.153875 93.982894 17.51366 C 93.835134 18.415762 93.748083 18.505569 93.09716 18.428849 C 92.534823 18.362569 92.37524 18.45483 92.37524 18.845878 C 92.37524 19.121968 92.077558 19.62755 91.713782 19.969324 C 91.349985 20.311098 91.047988 20.837741 91.041988 21.139795 C 91.035988 21.464986 90.685219 21.904949 90.182092 22.218282 C 89.714756 22.509323 89.114454 23.193934 88.847807 23.739636 C 88.581157 24.285337 88.198393 24.731824 87.997213 24.731824 C 87.796046 24.731824 87.489407 24.999715 87.316117 25.327136 C 86.911461 26.09172 85.964255 27.102523 85.646969 27.108423 C 85.511779 27.110923 85.019505 27.529793 84.552979 28.039115 C 84.086462 28.548436 83.467985 28.965157 83.178385 28.965157 C 82.790449 28.965157 82.651803 29.142271 82.651803 29.639018 C 82.651803 30.009856 82.428559 30.478335 82.155709 30.679781 C 81.604182 31.086975 81.839075 31.496488 82.714848 31.654399 C 83.004218 31.706579 83.281097 31.955896 83.329797 32.208887 C 83.399397 32.570168 83.232293 32.669324 82.552067 32.669324 C 81.878464 32.669324 81.75684 32.739674 82.00378 32.986617 C 82.434767 33.417584 82.40434 34.167901 81.949003 34.342607 C 81.744443 34.421107 81.497167 34.850675 81.399166 35.29707 C 81.223696 36.095998 80.664478 36.374626 80.32843 35.830888 C 80.08538 35.437625 78.889355 36.796693 78.716125 37.662817 C 78.615156 38.167654 78.732096 38.512448 79.124886 38.867912 C 79.819625 39.496649 79.824443 39.813074 79.139355 39.813074 C 78.806876 39.813074 78.505203 40.071858 78.344055 40.495719 C 78.046225 41.279073 77.465334 41.227547 77.344116 40.406836 C 77.298996 40.101383 77.084569 39.704222 76.86766 39.524202 C 76.54102 39.253113 76.446999 39.298875 76.318339 39.790853 C 76.207429 40.214983 76.019129 40.347277 75.659981 40.253357 C 74.725724 40.009044 73.854407 41.51509 73.854407 43.374613 C 73.854407 43.703632 73.420267 44.379065 72.862219 44.918705 C 71.327853 46.40245 70.94399 46.914001 70.94399 47.473588 C 70.94399 47.802558 70.61246 48.147386 70.031901 48.422884 C 69.235104 48.800984 69.109813 48.994684 69.039714 49.956641 C 68.961334 51.032548 68.93754 51.057865 67.993783 51.057865 C 66.738302 51.057865 65.71881 52.177481 66.183557 53.045858 C 66.344807 53.347177 66.44023 54.034907 66.395431 54.574447 C 66.325121 55.421264 66.223311 55.555916 65.652323 55.559916 C 64.949104 55.564716 62.084954 56.839879 61.822066 57.265238 C 61.736076 57.404368 61.818667 57.767655 62.005518 58.072424 C 62.310327 58.569672 62.252302 58.702782 61.443795 59.366919 C 60.655278 60.014658 60.527531 60.293393 60.419051 61.601408 C 60.317893 62.821285 60.207114 63.096407 59.816504 63.096407 C 59.553296 63.096407 59.262432 62.858288 59.170032 62.56724 C 59.077662 62.276201 58.777785 62.038074 58.503406 62.038074 C 58.065588 62.038074 58.020801 62.191838 58.14012 63.294845 C 58.31817 64.940679 57.747494 66.835002 56.954146 67.230522 C 55.894359 67.758889 55.814229 67.990174 56.423946 68.765312 C 56.900026 69.370549 56.936055 69.540089 56.630135 69.738379 C 55.990488 70.152978 55.232326 69.882961 55.067957 69.181824 C 54.927177 68.581366 54.763238 68.490546 54.040629 68.612866 C 53.657921 68.677656 52.952323 70.389528 52.952323 71.253015 C 52.952323 71.801235 53.170317 72.225238 53.643754 72.597636 C 54.368773 73.167935 54.356241 73.944324 53.62205 73.944324 C 53.399202 73.944324 53.216907 74.063389 53.216907 74.208907 C 53.216907 74.609957 52.654958 74.525642 52.12395 74.045093 C 51.802541 73.754203 51.424842 73.673309 50.946244 73.793429 C 50.306025 73.954118 50.2558 74.057234 50.39589 74.920492 C 50.586818 76.097068 50.26289 76.741902 49.368563 76.966361 C 48.822465 77.103421 48.437275 77.638755 47.491158 79.576021 C 46.836391 80.916724 46.107448 82.371309 45.871619 82.807865 C 45.635789 83.244422 45.392466 84.279387 45.330566 85.107983 C 45.204477 86.79604 45.402479 87.228091 47.597611 90.0467 C 48.287049 90.931966 49.184407 92.105967 49.591805 92.655843 C 49.999215 93.20572 52.06466 95.400716 54.181706 97.533582 C 58.412063 101.79562 59.026535 102.15173 60.684151 101.30234 C 61.161139 101.05792 61.610773 100.77916 61.683573 100.68326 C 61.756333 100.58746 62.232589 100.22153 62.741907 99.869873 C 63.251226 99.518213 63.988145 98.915233 64.379533 98.529903 C 64.770922 98.144577 65.723422 97.406323 66.4962 96.889176 C 67.268967 96.37203 68.432287 95.402816 69.081055 94.735819 C 69.729812 94.068826 70.369543 93.52349 70.502673 93.52349 C 70.993821 93.52349 74.089412 91.122831 74.249731 90.617725 C 74.350601 90.299908 74.834102 89.969669 75.484281 89.774882 C 76.072179 89.598742 76.737456 89.173547 76.962744 88.82972 C 77.188024 88.48589 77.710559 88.029832 78.123397 87.816345 C 78.536246 87.602855 78.946703 87.136996 79.036003 86.781266 C 79.148452 86.33322 79.721739 85.846904 80.901522 85.198417 C 81.838192 84.683561 83.522886 83.518317 84.645479 82.608911 C 85.768059 81.699538 87.103424 80.729904 87.61274 80.454004 C 88.122057 80.178117 88.865923 79.60527 89.265869 79.181213 C 89.665816 78.757157 90.100195 78.476479 90.231185 78.557479 C 90.362175 78.638479 90.749421 78.409733 91.091597 78.048983 C 91.900264 77.196426 92.427159 77.215793 92.847046 78.113578 C 93.146563 78.753999 93.125295 78.888456 92.667729 79.262345 C 92.382612 79.495312 92.066179 80.130109 91.964412 80.672595 C 91.837843 81.347262 91.580642 81.749119 91.151025 81.944869 C 90.659159 82.168976 90.523157 82.437667 90.523157 83.18407 C 90.523157 83.917996 90.386384 84.197346 89.928878 84.398466 C 88.811335 84.889732 88.17945 87.243649 88.755306 88.769259 C 88.962993 89.319515 88.943005 89.78879 88.678308 90.590853 C 88.285551 91.780926 87.877323 92.01689 87.877323 91.053874 C 87.877323 90.205211 87.687627 90.085034 86.823641 90.386214 C 86.117868 90.632261 86.083096 90.720054 86.144096 92.096704 C 86.179496 92.89477 86.345663 93.685276 86.513582 93.853186 C 87.224539 94.564162 86.575276 96.914146 85.510543 97.483972 C 84.692057 97.922009 84.281091 97.805136 83.914775 97.02922 L 83.571126 96.301615 L 83.35977 97.05144 C 83.12736 97.876647 83.260671 98.450097 83.842428 99.128833 C 84.052867 99.374353 84.492719 100.8031 84.820146 102.30383 C 85.147585 103.80454 85.50606 105.24123 85.616479 105.49589 C 85.757976 105.82223 85.698378 105.95891 85.413908 105.95891 C 84.665872 105.95891 84.133805 105.62566 83.899788 105.01013 C 83.744909 104.60279 83.318477 104.30391 82.624931 104.11716 C 81.749018 103.88129 81.487212 103.63651 80.981104 102.58237 L 80.379073 101.3287 L 80.124825 102.17464 C 79.917261 102.8665 79.975438 103.19732 80.443152 103.99003 C 81.376169 105.57139 80.668805 106.4766 78.809143 106.08138 L 77.955448 105.9 L 78.683053 106.67153 C 79.083232 107.09588 79.410657 107.68954 79.410657 107.99134 C 79.410657 108.3516 79.683303 108.65347 80.204407 108.86932 C 80.640976 109.05015 81.006994 109.27288 81.017794 109.36438 C 81.028604 109.45588 81.083014 109.76998 81.138717 110.06253 C 81.194427 110.35507 81.129917 110.77179 80.995056 110.98857 C 80.793148 111.31316 80.65577 111.32444 80.216292 111.05214 C 79.423527 110.56083 79.190297 110.6427 79.097498 111.44643 C 79.047668 111.87817 78.829699 112.20696 78.559029 112.25826 C 78.214811 112.32356 78.03024 112.05059 77.799902 111.13585 C 77.632543 110.47122 77.420513 109.92927 77.328613 109.93127 C 76.757254 109.94517 76.568163 110.47503 76.621163 111.91203 C 76.692083 113.8364 76.223663 115.09862 75.357674 115.31596 C 74.776877 115.46175 74.721079 115.61779 74.676579 117.2347 C 74.649939 118.2029 74.524516 119.18954 74.397526 119.42682 C 74.250838 119.70092 74.299246 120.09764 74.530334 120.51512 C 74.730394 120.87653 74.898438 121.80799 74.903438 122.58477 L 74.912223 123.99708 L 73.787744 123.81415 C 72.449559 123.59664 72.031894 123.28538 72.478263 122.83901 C 72.864201 122.45304 72.90076 122.00208 72.527356 122.23285 C 72.015138 122.54942 71.201312 124.47738 70.825134 126.26568 C 70.305775 128.73462 69.976899 129.50682 69.44434 129.50682 C 69.043012 129.50682 69.049756 129.55052 69.503768 129.88716 C 69.923877 130.19862 69.9619 130.35905 69.712541 130.76825 C 69.544871 131.04339 69.323671 132.0561 69.220581 133.01875 C 69.091583 134.22331 68.877312 134.91038 68.533285 135.22172 C 68.177675 135.54355 68.033057 136.03464 68.033057 136.92291 C 68.033057 137.98098 67.891718 138.32551 67.107015 139.1822 C 65.927998 140.46936 65.885165 141.14849 66.982992 141.14849 C 67.955133 141.14849 68.208172 141.66069 67.835653 142.87448 C 67.587033 143.68456 67.630571 143.81947 68.344149 144.45527 C 68.773278 144.83762 69.07791 145.2918 69.02111 145.46451 C 68.842822 146.00618 67.808845 145.96889 67.196932 145.39888 C 66.554365 144.80022 66.241842 144.73851 65.674544 145.0976 C 65.355385 145.29965 65.370122 145.55672 65.77428 146.84168 C 66.124139 147.95415 66.211506 148.84331 66.108626 150.23837 C 66.031966 151.27783 66.094027 152.75764 66.246086 153.52655 C 66.492775 154.774 66.468941 154.96319 66.028011 155.28561 C 65.595104 155.60214 65.577297 155.7275 65.881767 156.2964 C 66.072927 156.65355 66.201004 157.29087 66.166504 157.71234 C 66.132044 158.1338 66.240023 158.8137 66.406799 159.22336 C 66.573587 159.63301 66.71014 160.13075 66.71014 160.32975 C 66.71014 160.52876 66.937419 160.76358 67.215019 160.85168 C 67.80601 161.03926 68.127533 161.69635 67.744185 161.93327 C 67.461786 162.1078 68.214297 162.90088 69.595752 163.88457 C 70.046102 164.20525 70.414307 164.6379 70.414307 164.84627 C 70.414307 165.05465 70.592902 165.23993 70.811182 165.25813 C 71.029471 165.27633 71.356886 165.30929 71.538786 165.33099 C 71.720656 165.35269 71.844819 165.6057 71.814221 165.89323 C 71.709671 166.87697 74.834405 172.63339 75.472913 172.63339 C 75.586272 172.63339 75.982696 172.91508 76.353996 173.25919 C 76.829365 173.69973 77.02889 174.15847 77.02889 174.80897 C 77.02889 175.67239 77.980869 177.24656 79.395154 178.72191 C 79.621614 178.95816 80.191806 179.70909 80.661743 180.39054 C 81.483942 181.58277 82.333825 181.98538 82.717432 181.36464 C 83.004911 180.89949 83.601889 181.08095 83.795919 181.69227 C 83.971179 182.24448 84.567786 183.06124 86.355452 185.19593 C 86.755632 185.6738 87.083057 186.32509 87.083057 186.64287 C 87.083057 187.50092 87.545896 188.21116 88.470569 188.77349 C 88.923935 189.0492 89.392939 189.21471 89.512366 189.14091 C 90.195792 188.71852 89.244554 185.50913 88.217871 184.77322 C 87.519075 184.27232 86.779648 182.69986 86.966268 182.11188 C 87.065068 181.80044 86.986866 181.62974 86.74561 181.62974 C 86.54007 181.62974 86.166456 181.40299 85.915686 181.1259 C 85.535799 180.70612 85.515169 180.53324 85.791146 180.09133 C 86.079886 179.62898 86.014342 179.43779 85.280066 178.6015 C 84.780619 178.03268 84.435606 177.35004 84.433606 176.92408 C 84.431606 176.52896 84.138303 175.26681 83.781966 174.1196 C 83.34124 172.70059 83.211203 171.88989 83.375273 171.58333 C 83.529922 171.29436 83.482697 170.61873 83.243498 169.70024 C 82.776811 167.90825 82.422287 164.29002 82.478687 161.89296 C 82.677303 153.44834 82.919435 150.80321 83.671379 148.87515 C 83.801748 148.54088 83.908573 147.62953 83.908573 146.85047 C 83.908573 146.07142 84.141178 144.07414 84.425338 142.41198 C 84.709494 140.74981 84.879276 139.15035 84.802576 138.85716 C 84.725876 138.56397 84.910026 137.88404 85.211853 137.34666 C 85.513683 136.80927 85.760657 135.99436 85.760657 135.5354 C 85.760657 134.76307 86.67453 132.45603 87.100627 132.15266 C 87.202827 132.07986 87.432403 131.30599 87.610673 130.43287 C 87.788943 129.55975 88.016152 128.7263 88.115552 128.58078 C 88.214952 128.43526 88.453649 127.83995 88.646269 127.25787 C 88.838889 126.67579 89.156015 125.84232 89.351135 125.40578 C 89.885992 124.20906 91.598947 119.18369 91.831087 118.12974 C 92.017387 117.28393 97.816844 105.5543 98.412081 104.81944 C 98.552748 104.64578 98.849029 103.96792 99.070955 103.31307 C 99.455585 102.17817 100.81761 99.287325 102.09816 96.887109 C 102.42525 96.274036 103.38383 94.462731 104.22878 92.862032 C 107.52288 86.621574 108.31141 85.17486 108.62644 84.79224 C 108.80616 84.573964 109.27862 83.680989 109.67651 82.807865 C 110.0744 81.934752 110.5111 81.041767 110.64648 80.82349 C 110.78186 80.605211 111.3395 79.615344 111.88619 78.624141 C 112.43289 77.63293 113.39542 76.025583 114.02508 75.052266 C 114.65475 74.078949 115.95322 71.973173 116.91018 70.372449 C 117.86713 68.771724 118.80084 67.283437 118.9855 67.065157 C 119.17016 66.846879 119.40288 66.340747 119.50278 65.940678 C 119.60258 65.54062 119.97476 64.945299 120.32961 64.617761 C 120.68446 64.290222 121.22279 63.546203 121.52592 62.964115 C 121.82904 62.382036 122.5378 61.402205 123.10101 60.786987 C 124.0716 59.72682 124.26652 59.143095 124.14074 57.672449 C 124.04674 56.573372 123.22116 54.447395 122.36617 53.103219 C 121.87844 52.336411 121.47941 51.660935 121.47941 51.602535 C 121.47941 51.296257 118.37635 46.144969 117.64502 45.237032 C 117.17615 44.654955 116.71237 43.923682 116.61407 43.612325 C 116.4092 42.963494 115.40974 42.682008 114.69171 43.070756 C 114.42318 43.216144 113.74556 43.743376 113.18586 44.242261 C 112.41355 44.93064 112.01534 45.110759 111.53428 44.990019 C 111.06305 44.871749 110.75191 45.001869 110.32143 45.496965 C 109.58636 46.342402 109.12155 46.336525 108.21665 45.469576 L 107.49266 44.775562 L 106.24209 46.133618 C 105.06218 47.414515 104.96363 47.467085 104.50887 47.055526 C 103.79018 46.405128 103.12362 47.033137 103.31049 48.184656 C 103.47504 49.198603 102.89543 49.924463 102.54258 49.146354 C 102.42542 48.887976 102.32213 48.448893 102.31313 48.170703 C 102.28843 47.403356 101.63566 47.320198 101.63566 48.084403 C 101.63566 48.935101 100.85201 49.624868 100.10707 49.430058 C 99.661001 49.313408 99.469494 49.424259 99.291614 49.902897 C 99.163724 50.246907 99.111225 50.665378 99.174825 50.832556 C 99.324745 51.226866 98.813112 51.546349 98.595532 51.194291 C 98.279916 50.683612 97.666907 50.915544 97.666907 51.545691 C 97.666907 52.505898 96.791967 53.141177 95.710954 52.965759 C 95.021677 52.853899 94.690051 52.94129 94.341012 53.326978 C 94.087755 53.606857 93.71765 53.83599 93.518323 53.83599 C 93.318993 53.83599 93.049856 54.114128 92.920426 54.454557 C 92.725067 54.968405 92.541855 55.052567 91.840389 54.949618 C 91.020823 54.829328 91.000339 54.849818 91.170146 55.622961 C 91.328936 56.345889 91.26574 56.447562 90.488534 56.718502 C 90.017207 56.882802 89.427139 57.202099 89.177502 57.428019 C 88.764486 57.801807 88.676244 57.787773 88.196167 57.272473 C 87.567061 56.597186 87.236968 56.948412 87.600854 57.905509 C 87.901651 58.696677 87.425471 59.200233 87.035514 58.503406 C 86.901924 58.264696 86.551097 58.069324 86.255717 58.069324 C 85.80472 58.069324 85.744916 58.18838 85.882096 58.812948 C 86.000676 59.352855 85.908493 59.680267 85.546716 60.007707 C 85.0758 60.433836 85.01127 60.429068 84.368494 59.923474 C 83.841827 59.509197 83.543454 59.443321 83.047127 59.632019 C 82.515931 59.833959 82.426412 60.01595 82.525712 60.692419 C 82.667499 61.658526 82.623709 61.669427 81.433789 60.967338 C 80.002508 60.122861 79.895293 59.209311 81.159904 58.633114 C 81.523903 58.467264 81.759703 58.231238 81.683903 58.108598 C 81.608103 57.985968 81.898912 57.547893 82.329858 57.135014 C 82.760805 56.722146 83.497548 55.619198 83.967485 54.684001 C 84.488741 53.646654 85.055793 52.894544 85.421659 52.755436 C 85.833356 52.598906 86.001227 52.342048 85.957027 51.935848 C 85.912527 51.52656 86.056128 51.310549 86.422115 51.236149 C 87.096041 51.099121 87.339023 50.717389 87.344023 49.787142 C 87.347023 49.201285 87.516052 48.986885 88.149658 48.766016 C 89.139061 48.421106 89.861906 47.169784 89.481877 46.459696 C 89.14779 45.835447 89.425677 45.536825 89.941797 45.965153 C 90.263014 46.231743 90.388986 46.196483 90.627543 45.774984 C 90.788283 45.490974 91.247449 44.959518 91.647636 44.59366 C 92.047816 44.227814 92.37524 43.843066 92.37524 43.738932 C 92.37524 43.634798 92.732434 43.158573 93.16899 42.680599 C 93.60555 42.202626 93.96274 41.716929 93.96274 41.601078 C 93.96274 41.485226 94.572119 40.747428 95.316663 39.961902 C 96.061209 39.176376 96.805352 38.301429 96.970308 38.017318 C 97.135258 37.733205 97.484605 37.12153 97.747005 36.658228 C 98.009402 36.194924 98.460402 35.579996 98.749011 35.291386 C 99.037638 35.002778 99.199796 34.646807 99.109196 34.50022 C 98.889209 34.144269 99.431189 33.524653 100.62073 32.77371 C 101.32897 32.32662 101.86026 31.62622 102.54981 30.230196 L 103.50169 28.303699 L 103.07123 27.04176 C 102.83451 26.347845 102.43001 25.667488 102.17257 25.529708 C 101.85433 25.359385 101.66431 24.859935 101.57881 23.969596 C 101.48051 22.946895 101.28456 22.511086 100.68429 21.980054 C 99.918897 21.302941 99.918351 21.299614 100.51118 21.133077 C 101.17435 20.94678 101.31009 20.050568 100.81555 19.126481 C 100.59063 18.706214 100.6289 18.352937 100.98453 17.564303 C 101.36916 16.711343 101.39598 16.360818 101.14783 15.413013 C 100.98477 14.790189 100.85389 13.983125 100.85689 13.619324 C 100.86749 12.313613 100.51657 10.97349 100.16443 10.97349 C 99.969302 10.97349 99.711864 10.797782 99.591854 10.583333 C 99.511154 10.439076 99.404995 10.355481 99.246655 10.327018 z " /></g><g
     inkscape:groupmode="layer"
     id="layer2"
     inkscape:label="Camada 0"><path
       id="path1"
       style="fill:#000000;stroke:#ffffff"
       d="M 156.83952 200.67096 C 157.72702 200.68686 158.63089 200.82778 158.88488 201.08178 C 159.23179 201.42869 159.23851 201.61956 158.93397 202.47085 C 158.12088 204.7436 152.41491 217.46107 152.00519 217.91383 C 151.64153 218.31572 151.1715 218.40682 149.45548 218.40682 C 147.87724 218.40682 147.38507 218.32422 147.48557 218.07609 C 148.61526 215.28727 154.70638 201.25299 154.89235 201.01047 C 155.08104 200.76438 155.952 200.65508 156.83952 200.67096 z " /></g></svg>
