<?xml version="1.0" encoding="UTF-8" standalone="no"?>
<!-- Created with Inkscape (http://www.inkscape.org/) -->

<svg
   version="1.1"
   id="svg1"
   width="3640"
   height="1280"
   viewBox="0 0 3640 1280"
   sodipodi:docname="thule-logo-fonte-preta.svg"
   inkscape:version="1.3 (0e150ed6c4, 2023-07-21)"
   xmlns:inkscape="http://www.inkscape.org/namespaces/inkscape"
   xmlns:sodipodi="http://sodipodi.sourceforge.net/DTD/sodipodi-0.dtd"
   xmlns="http://www.w3.org/2000/svg"
   xmlns:svg="http://www.w3.org/2000/svg">
  <defs
     id="defs1" />
  <sodipodi:namedview
     id="namedview1"
     pagecolor="#000000"
     bordercolor="#000000"
     borderopacity="0.25"
     inkscape:showpageshadow="2"
     inkscape:pageopacity="0.0"
     inkscape:pagecheckerboard="0"
     inkscape:deskcolor="#d1d1d1"
     inkscape:zoom="0.15825"
     inkscape:cx="1993.6809"
     inkscape:cy="1494.4708"
     inkscape:window-width="1600"
     inkscape:window-height="829"
     inkscape:window-x="1912"
     inkscape:window-y="-8"
     inkscape:window-maximized="1"
     inkscape:current-layer="g1" />
  <g
     inkscape:groupmode="layer"
     inkscape:label="Image"
     id="g1"
     sodipodi:insensitive="true">
    <path
       style="fill:#ffffff;stroke:#ffffff"
       d="M -0.6161084,639.70925 V -1.624054 H 1823.3839 h 1824 V 639.70925 1281.0427 h -1824 H -0.6161084 Z M 1966.0506,1032.9097 c 47.379,-5.5281 95.6285,-23.21 135.8469,-49.78354 77.7696,-51.3848 128.6272,-132.5404 141.0268,-225.0423 2.6675,-19.8998 2.7218,-27.8281 2.1263,-310.71421 l -0.3334,-158.3396 -137,0.3396 -137,0.3396 -0.6666,218.6667 -0.6667,218.66661 -2.8812,6.2343 c -4.3137,9.3338 -12.5896,17.5316 -21.931,21.7237 -19.724,8.8516 -43.5122,-0.2139 -53.4378,-20.3648 l -3.0833,-6.2598 -0.8163,-182.00001 c -0.4489,-100.1 -0.8989,-198.95 -1,-219.6667 l -0.1837,-37.6667 h -136.6667 -136.6667 v 226.5984 c 0,196.1426 0.2755,228.71321 2.0496,242.33331 9.4293,72.3913 41.931,137.2272 94.1221,187.7591 25.4454,24.6365 49.8359,41.743 81.8283,57.39134 54.4204,26.6183 114.7041,36.859 175.3334,29.785 z M 706.05056,767.04256 V 525.04255 h 70.00724 70.0074 l -0.3406,-117.6666 -0.3406,-117.6667 H 566.05056 286.71722 l -0.43492,18 c -0.23921,9.9 -0.0168,61.95 0.49436,115.6667 l 0.92928,97.6666 h 71.83897 71.83898 v 244.00001 244.00014 h 137.33333 137.33334 z m 468.00004,121.3335 v -120.6668 h 41.3333 41.3333 v 120.6668 120.66664 h 138.0025 138.0024 l -0.3358,-359.66675 -0.3357,-359.6667 h -136.6667 -136.6667 l -0.3403,122.3333 -0.3403,122.3334 h -41.986 -41.9861 l -0.3403,-122.3334 -0.3403,-122.3333 -136.3728,-0.3396 c -108.4032,-0.27 -136.4991,0 -136.989,1.3333 -0.3391,0.9201 -0.7713,162.923 -0.9606,360.0064 l -0.3442,358.33355 137.6666,-10e-5 137.6667,-1e-4 z m 2045.3333,0.6666 v -120.0001 h -102 -102 v -39.3333 -39.33331 h 80 80 v -71.3334 -71.3333 h -80 -80 v -35.3333 -35.3334 h 102 102 v -94.0036 -94.0037 l -236.3333,0.337 -236.3334,0.337 -0.3369,239.6667 -0.337,239.66661 h -77.3261 -77.326 l -0.337,-239.66661 -0.337,-239.6667 -135,-0.3397 -135,-0.3397 v 360.0064 360.00645 h 449.3334 449.3333 z m -748.6667,55.1794 c -7.9298,-1.0484 -19.7663,-3.41 -22.7205,-4.5332 l -3.0156,-1.1465 2.6685,-10.6259 2.6686,-10.6259 4.5168,1.8873 c 7.564,3.1604 23.0207,4.7523 31.1587,3.209 9.0099,-1.7087 13.3902,-5.5166 13.3902,-11.6403 0,-6.1893 -4.1971,-9.7009 -17.9496,-15.0177 -12.5133,-4.8378 -21.4333,-11.5503 -24.2239,-18.2291 -1.0046,-2.4043 -1.8133,-7.8407 -1.7972,-12.0809 0.091,-23.9403 21.0958,-35.5741 58.3815,-32.3354 14.2162,1.2349 20.2559,2.9297 20.2559,5.6842 0,1.4929 -2.7654,12.0942 -4.6489,17.8215 -0.3737,1.1365 -2.322,1.0148 -7.35,-0.4591 -9.8757,-2.895 -30.6979,-2.0191 -34.5305,1.4526 -3.4563,3.1309 -3.6305,8.9654 -0.356,11.9288 1.3464,1.2185 7.9003,4.5458 14.5642,7.394 21.2827,9.0964 27.1545,16.1897 27.1545,32.8039 0,16.1987 -7.745,25.9708 -24.7198,31.1899 -8.196,2.5199 -26.0806,4.2967 -33.4469,3.3228 z m 82,-5.5074 c 0,-2.054 -1.4984,-25.3205 -3.3298,-51.7033 -1.8314,-26.3828 -3.3314,-49.0187 -3.3333,-50.302 0,-2.0721 1.5409,-2.3333 13.7916,-2.3333 h 13.7951 l 0.8715,16.2093 c 0.4794,8.9151 0.9343,27.6651 1.011,41.6667 l 0.1393,25.4573 13.6187,-41.3333 13.6186,-41.3334 18.749,-0.3689 18.749,-0.369 0.9901,41.5772 c 0.5446,22.8675 1.4507,40.7335 2.0136,39.7023 0.563,-1.0312 6.4726,-19.5082 13.1325,-41.06 6.6599,-21.5519 12.3468,-39.423 12.6374,-39.7136 0.2906,-0.2906 6.8398,-0.3573 14.5537,-0.1482 l 14.0254,0.3802 -19.5465,53.3334 -19.5464,53.3333 -18.8193,0.369 -18.8192,0.369 -0.987,-33.0356 c -0.5429,-18.1697 -1.3608,-37.0157 -1.8177,-41.8802 l -0.8306,-8.8444 -13.3698,41.5111 -13.3698,41.5111 -18.9635,0.3699 -18.9636,0.37 z m 138.3338,-1.3386 c 0.458,-2.75 4.1713,-26.9 8.2517,-53.6667 l 7.4191,-48.6667 38.4274,-0.3539 c 36.1885,-0.3333 38.3876,-0.2168 37.7436,2 -0.3761,1.2947 -1.0886,5.8039 -1.5833,10.0206 l -0.8995,7.6667 h -23.7565 c -26.4416,0 -24.1755,-0.8761 -25.8654,10 -0.4558,2.9333 -1.1559,6.9833 -1.5557,9 l -0.727,3.6666 h 22.9171 22.9172 l -0.7367,3 c -0.4052,1.65 -1.1475,6.15 -1.6497,10 l -0.9129,7 h -22.4695 c -22.2282,0 -22.4762,0.032 -23.0926,3 -0.8057,3.8796 -3.4277,20.2819 -3.4277,21.4426 0,0.4899 11.1527,0.8908 24.7838,0.8908 h 24.7839 l -0.872,5.6666 c -0.4795,3.1167 -1.199,7.6167 -1.5989,10 l -0.7269,4.3334 h -39.1012 -39.1011 z m 91.5272,1.4525 c 1.0895,-5.2082 15.4621,-100.7167 15.4678,-102.7859 0.01,-2.5391 47.3178,-2.2607 58.3634,0.3436 16.6295,3.9207 27.9564,12.3797 33.9087,25.3231 2.6802,5.8283 3.0545,8.6789 2.9763,22.6667 -0.075,13.331 -0.5936,17.286 -3.1119,23.7097 -5.8308,14.8736 -16.0601,24.4622 -32.4024,30.3733 -7.7059,2.7872 -11.1752,3.0829 -42.195,3.5961 l -33.7988,0.5592 z m 62.9958,-21.4856 c 12.7323,-6.6272 20.4869,-22.6586 18.6246,-38.5039 -1.8056,-15.3628 -9.6197,-21.6426 -28.3875,-22.8135 -8.686,-0.5419 -11.1688,-0.294 -11.6644,1.1644 -0.3463,1.019 -2.6695,15.8689 -5.1626,32.9998 l -4.5329,31.147 12.7997,-0.5595 c 9.7224,-0.4249 14.1276,-1.2506 18.3231,-3.4343 z m 55.1432,22.6003 c 0,-2.4585 14.0523,-95.1147 15.4544,-101.9006 l 0.7575,-3.6666 h 38.0113 38.0112 l -0.8719,5.6666 c -0.4796,3.1167 -1.1991,7.6167 -1.5989,10 l -0.727,4.3334 h -23.7912 -23.7912 l -0.7094,4.3333 c -0.3902,2.3833 -1.2355,7.4833 -1.8784,11.3333 l -1.169,7 h 22.4847 c 16.2578,0 22.4846,0.4313 22.4846,1.5575 0,0.8566 -0.6616,5.3566 -1.4702,10 l -1.4702,8.4425 h -22.4093 -22.4094 l -1.5136,9.6667 c -0.8325,5.3167 -1.7982,11.0167 -2.1459,12.6667 l -0.6322,3 h 24.8457 24.8457 l -0.8995,7.6666 c -1.6053,13.6824 2.8607,12.3334 -40.831,12.3334 -36.4518,0 -38.5768,-0.134 -38.5768,-2.4328 z m 91.1238,0.099 c 0.3502,-1.2833 4.1157,-25.5833 8.3676,-54 l 7.7309,-51.6666 h 18.1227 18.1228 l 13.2575,37.2307 c 7.2917,20.477 13.4343,37.0541 13.6503,36.8381 0.216,-0.216 2.4505,-15.0198 4.9656,-32.8974 2.5152,-17.8776 4.9195,-34.4548 5.343,-36.8381 l 0.77,-4.3333 h 13.2729 c 8.0777,0 13.2729,0.5289 13.2729,1.3513 0,1.7933 -14.4795,98.2621 -15.4626,103.0189 l -0.7654,3.7035 -18.0265,-0.3702 -18.0265,-0.3702 -13.2921,-36.6548 c -7.3107,-20.1602 -13.4662,-36.829 -13.6791,-37.0418 -0.2128,-0.2129 -2.7,16.4318 -5.5272,36.9881 l -5.1402,37.3752 h -13.7967 c -12.4934,0 -13.7365,-0.2204 -13.1599,-2.3334 z m 397.5429,-588.61261 c 26.067,-5.6065 48.568,-27.9911 55.1945,-54.9089 2.0414,-8.2925 2.0686,-26.4901 0.052,-34.9563 -4.8661,-20.4319 -20.2736,-39.9581 -38.6786,-49.0182 -30.3947,-14.9621 -63.3031,-9.7113 -86.8764,13.862 -17.6709,17.6709 -25.4089,42.4553 -20.5961,65.9677 8.8348,43.161 47.6273,68.3616 90.9043,59.0537 z m -27.0853,-13.1727 c -31.9953,-5.4955 -52.6882,-38.9669 -45.4286,-73.4821 6.3059,-29.9808 34.4107,-50.1244 63.2639,-45.3432 25.4277,4.2135 43.6267,23.624 47.4416,50.5997 2.7317,19.3168 -3.6335,39.6595 -16.406,52.4319 -12.9017,12.9018 -31.2274,18.8241 -48.8709,15.7937 z m -2.9147,-35.2144 v -18 h 4.5647 c 4.4302,0 4.8875,0.53 15.5328,18 l 10.9683,18 h 7.8791 c 4.3335,0 7.6408,-0.45 7.3496,-1 -0.2913,-0.55 -5.1997,-8.6769 -10.9077,-18.0598 -5.708,-9.3829 -10.1551,-17.2265 -9.8825,-17.4301 0.2726,-0.2037 3.3286,-1.4198 6.7911,-2.7026 7.6739,-2.8431 12.4864,-8.2638 13.6968,-15.4279 2.0975,-12.4149 -2.5823,-22.6607 -12.3611,-27.0626 -5.3632,-2.4143 -9.5132,-2.9187 -27.9644,-3.3992 l -21.6667,-0.5642 v 42.8232 42.8232 h 8 8 z m 0,-43.3333 v -12 l 7,0.058 c 17.853,0.1481 24.5269,4.1459 23.2176,13.9077 -1.1139,8.3045 -4.2797,10.0342 -18.3653,10.0342 h -11.8523 z"
       id="path1"
       sodipodi:insensitive="true" />
  </g>
</svg>
